<?xml version="1.0" encoding="utf-8" standalone="no"?>
<!DOCTYPE svg PUBLIC "-//W3C//DTD SVG 1.1//EN"
  "http://www.w3.org/Graphics/SVG/1.1/DTD/svg11.dtd">
<svg xmlns:xlink="http://www.w3.org/1999/xlink" width="1284.565312pt" height="471.570937pt" viewBox="0 0 1284.565312 471.570937" xmlns="http://www.w3.org/2000/svg" version="1.1">
 <metadata>
  <rdf:RDF xmlns:dc="http://purl.org/dc/elements/1.1/" xmlns:cc="http://creativecommons.org/ns#" xmlns:rdf="http://www.w3.org/1999/02/22-rdf-syntax-ns#">
   <cc:Work>
    <dc:type rdf:resource="http://purl.org/dc/dcmitype/StillImage"/>
    <dc:date>2025-08-01T18:35:58.074489</dc:date>
    <dc:format>image/svg+xml</dc:format>
    <dc:creator>
     <cc:Agent>
      <dc:title>Matplotlib v3.10.1, https://matplotlib.org/</dc:title>
     </cc:Agent>
    </dc:creator>
   </cc:Work>
  </rdf:RDF>
 </metadata>
 <defs>
  <style type="text/css">*{stroke-linejoin: round; stroke-linecap: butt}</style>
 </defs>
 <g id="figure_1">
  <g id="patch_1">
   <path d="M 0 471.570937 
L 1284.565312 471.570937 
L 1284.565312 0 
L 0 0 
z
" style="fill: #ffffff"/>
  </g>
  <g id="axes_1">
   <g id="patch_2">
    <path d="M 41.965313 433.70625 
L 634.270313 433.70625 
L 634.270313 11.36625 
L 41.965313 11.36625 
z
" style="fill: #ffffff"/>
   </g>
   <g id="matplotlib.axis_1">
    <g id="xtick_1">
     <g id="line2d_1">
      <path d="M 68.888267 433.70625 
L 68.888267 11.36625 
" clip-path="url(#pff74023f7e)" style="fill: none; stroke-dasharray: 1.85,0.8; stroke-dashoffset: 0; stroke: #cccccc; stroke-width: 0.5"/>
     </g>
     <g id="line2d_2"/>
     <g id="text_1">
      <!-- 6 -->
      <g style="fill: #262626" transform="translate(65.888267 445.53875) scale(0.12 -0.12)">
       <defs>
        <path id="TimesNewRomanPSMT-36" d="M 2869 4325 
L 2869 4209 
Q 2456 4169 2195 4045 
Q 1934 3922 1679 3669 
Q 1425 3416 1258 3105 
Q 1091 2794 978 2366 
Q 1428 2675 1881 2675 
Q 2316 2675 2634 2325 
Q 2953 1975 2953 1425 
Q 2953 894 2631 456 
Q 2244 -75 1606 -75 
Q 1172 -75 869 213 
Q 275 772 275 1663 
Q 275 2231 503 2743 
Q 731 3256 1154 3653 
Q 1578 4050 1965 4187 
Q 2353 4325 2688 4325 
L 2869 4325 
z
M 925 2138 
Q 869 1716 869 1456 
Q 869 1156 980 804 
Q 1091 453 1309 247 
Q 1469 100 1697 100 
Q 1969 100 2183 356 
Q 2397 613 2397 1088 
Q 2397 1622 2184 2012 
Q 1972 2403 1581 2403 
Q 1463 2403 1327 2353 
Q 1191 2303 925 2138 
z
" transform="scale(0.015625)"/>
       </defs>
       <use xlink:href="#TimesNewRomanPSMT-36"/>
      </g>
     </g>
    </g>
    <g id="xtick_2">
     <g id="line2d_3">
      <path d="M 145.810994 433.70625 
L 145.810994 11.36625 
" clip-path="url(#pff74023f7e)" style="fill: none; stroke-dasharray: 1.85,0.8; stroke-dashoffset: 0; stroke: #cccccc; stroke-width: 0.5"/>
     </g>
     <g id="line2d_4"/>
     <g id="text_2">
      <!-- 8 -->
      <g style="fill: #262626" transform="translate(142.810994 445.53875) scale(0.12 -0.12)">
       <defs>
        <path id="TimesNewRomanPSMT-38" d="M 1228 2134 
Q 725 2547 579 2797 
Q 434 3047 434 3316 
Q 434 3728 753 4026 
Q 1072 4325 1600 4325 
Q 2113 4325 2425 4047 
Q 2738 3769 2738 3413 
Q 2738 3175 2569 2928 
Q 2400 2681 1866 2347 
Q 2416 1922 2594 1678 
Q 2831 1359 2831 1006 
Q 2831 559 2490 242 
Q 2150 -75 1597 -75 
Q 994 -75 656 303 
Q 388 606 388 966 
Q 388 1247 577 1523 
Q 766 1800 1228 2134 
z
M 1719 2469 
Q 2094 2806 2194 3001 
Q 2294 3197 2294 3444 
Q 2294 3772 2109 3958 
Q 1925 4144 1606 4144 
Q 1288 4144 1088 3959 
Q 888 3775 888 3528 
Q 888 3366 970 3203 
Q 1053 3041 1206 2894 
L 1719 2469 
z
M 1375 2016 
Q 1116 1797 991 1539 
Q 866 1281 866 981 
Q 866 578 1086 336 
Q 1306 94 1647 94 
Q 1984 94 2187 284 
Q 2391 475 2391 747 
Q 2391 972 2272 1150 
Q 2050 1481 1375 2016 
z
" transform="scale(0.015625)"/>
       </defs>
       <use xlink:href="#TimesNewRomanPSMT-38"/>
      </g>
     </g>
    </g>
    <g id="xtick_3">
     <g id="line2d_5">
      <path d="M 222.733722 433.70625 
L 222.733722 11.36625 
" clip-path="url(#pff74023f7e)" style="fill: none; stroke-dasharray: 1.85,0.8; stroke-dashoffset: 0; stroke: #cccccc; stroke-width: 0.5"/>
     </g>
     <g id="line2d_6"/>
     <g id="text_3">
      <!-- 10 -->
      <g style="fill: #262626" transform="translate(216.733722 445.53875) scale(0.12 -0.12)">
       <defs>
        <path id="TimesNewRomanPSMT-31" d="M 750 3822 
L 1781 4325 
L 1884 4325 
L 1884 747 
Q 1884 391 1914 303 
Q 1944 216 2037 169 
Q 2131 122 2419 116 
L 2419 0 
L 825 0 
L 825 116 
Q 1125 122 1212 167 
Q 1300 213 1334 289 
Q 1369 366 1369 747 
L 1369 3034 
Q 1369 3497 1338 3628 
Q 1316 3728 1258 3775 
Q 1200 3822 1119 3822 
Q 1003 3822 797 3725 
L 750 3822 
z
" transform="scale(0.015625)"/>
        <path id="TimesNewRomanPSMT-30" d="M 231 2094 
Q 231 2819 450 3342 
Q 669 3866 1031 4122 
Q 1313 4325 1613 4325 
Q 2100 4325 2488 3828 
Q 2972 3213 2972 2159 
Q 2972 1422 2759 906 
Q 2547 391 2217 158 
Q 1888 -75 1581 -75 
Q 975 -75 572 641 
Q 231 1244 231 2094 
z
M 844 2016 
Q 844 1141 1059 588 
Q 1238 122 1591 122 
Q 1759 122 1940 273 
Q 2122 425 2216 781 
Q 2359 1319 2359 2297 
Q 2359 3022 2209 3506 
Q 2097 3866 1919 4016 
Q 1791 4119 1609 4119 
Q 1397 4119 1231 3928 
Q 1006 3669 925 3112 
Q 844 2556 844 2016 
z
" transform="scale(0.015625)"/>
       </defs>
       <use xlink:href="#TimesNewRomanPSMT-31"/>
       <use xlink:href="#TimesNewRomanPSMT-30" transform="translate(50 0)"/>
      </g>
     </g>
    </g>
    <g id="xtick_4">
     <g id="line2d_7">
      <path d="M 299.656449 433.70625 
L 299.656449 11.36625 
" clip-path="url(#pff74023f7e)" style="fill: none; stroke-dasharray: 1.85,0.8; stroke-dashoffset: 0; stroke: #cccccc; stroke-width: 0.5"/>
     </g>
     <g id="line2d_8"/>
     <g id="text_4">
      <!-- 12 -->
      <g style="fill: #262626" transform="translate(293.656449 445.53875) scale(0.12 -0.12)">
       <defs>
        <path id="TimesNewRomanPSMT-32" d="M 2934 816 
L 2638 0 
L 138 0 
L 138 116 
Q 1241 1122 1691 1759 
Q 2141 2397 2141 2925 
Q 2141 3328 1894 3587 
Q 1647 3847 1303 3847 
Q 991 3847 742 3664 
Q 494 3481 375 3128 
L 259 3128 
Q 338 3706 661 4015 
Q 984 4325 1469 4325 
Q 1984 4325 2329 3994 
Q 2675 3663 2675 3213 
Q 2675 2891 2525 2569 
Q 2294 2063 1775 1497 
Q 997 647 803 472 
L 1909 472 
Q 2247 472 2383 497 
Q 2519 522 2628 598 
Q 2738 675 2819 816 
L 2934 816 
z
" transform="scale(0.015625)"/>
       </defs>
       <use xlink:href="#TimesNewRomanPSMT-31"/>
       <use xlink:href="#TimesNewRomanPSMT-32" transform="translate(50 0)"/>
      </g>
     </g>
    </g>
    <g id="xtick_5">
     <g id="line2d_9">
      <path d="M 415.04054 433.70625 
L 415.04054 11.36625 
" clip-path="url(#pff74023f7e)" style="fill: none; stroke-dasharray: 1.85,0.8; stroke-dashoffset: 0; stroke: #cccccc; stroke-width: 0.5"/>
     </g>
     <g id="line2d_10"/>
     <g id="text_5">
      <!-- 15 -->
      <g style="fill: #262626" transform="translate(409.04054 445.53875) scale(0.12 -0.12)">
       <defs>
        <path id="TimesNewRomanPSMT-35" d="M 2778 4238 
L 2534 3706 
L 1259 3706 
L 981 3138 
Q 1809 3016 2294 2522 
Q 2709 2097 2709 1522 
Q 2709 1188 2573 903 
Q 2438 619 2231 419 
Q 2025 219 1772 97 
Q 1413 -75 1034 -75 
Q 653 -75 479 54 
Q 306 184 306 341 
Q 306 428 378 495 
Q 450 563 559 563 
Q 641 563 702 538 
Q 763 513 909 409 
Q 1144 247 1384 247 
Q 1750 247 2026 523 
Q 2303 800 2303 1197 
Q 2303 1581 2056 1914 
Q 1809 2247 1375 2428 
Q 1034 2569 447 2591 
L 1259 4238 
L 2778 4238 
z
" transform="scale(0.015625)"/>
       </defs>
       <use xlink:href="#TimesNewRomanPSMT-31"/>
       <use xlink:href="#TimesNewRomanPSMT-35" transform="translate(50 0)"/>
      </g>
     </g>
    </g>
    <g id="xtick_6">
     <g id="line2d_11">
      <path d="M 607.347358 433.70625 
L 607.347358 11.36625 
" clip-path="url(#pff74023f7e)" style="fill: none; stroke-dasharray: 1.85,0.8; stroke-dashoffset: 0; stroke: #cccccc; stroke-width: 0.5"/>
     </g>
     <g id="line2d_12"/>
     <g id="text_6">
      <!-- 20 -->
      <g style="fill: #262626" transform="translate(601.347358 445.53875) scale(0.12 -0.12)">
       <use xlink:href="#TimesNewRomanPSMT-32"/>
       <use xlink:href="#TimesNewRomanPSMT-30" transform="translate(50 0)"/>
      </g>
     </g>
    </g>
    <g id="text_7">
     <!-- Number of Nodes -->
     <g style="fill: #262626" transform="translate(285.743594 461.37625) scale(0.14 -0.14)">
      <defs>
       <path id="TimesNewRomanPS-BoldMT-4e" d="M 1594 4238 
L 3684 1609 
L 3684 3431 
Q 3684 3813 3575 3947 
Q 3425 4128 3072 4122 
L 3072 4238 
L 4472 4238 
L 4472 4122 
Q 4203 4088 4111 4033 
Q 4019 3978 3967 3854 
Q 3916 3731 3916 3431 
L 3916 -97 
L 3809 -97 
L 944 3431 
L 944 738 
Q 944 372 1111 244 
Q 1278 116 1494 116 
L 1594 116 
L 1594 0 
L 91 0 
L 91 116 
Q 441 119 578 259 
Q 716 400 716 738 
L 716 3728 
L 625 3841 
Q 491 4009 387 4062 
Q 284 4116 91 4122 
L 91 4238 
L 1594 4238 
z
" transform="scale(0.015625)"/>
       <path id="TimesNewRomanPS-BoldMT-75" d="M 3038 2922 
L 3038 634 
Q 3038 300 3100 217 
Q 3163 134 3353 113 
L 3353 0 
L 2163 0 
L 2163 391 
Q 1953 141 1743 26 
Q 1534 -88 1275 -88 
Q 1028 -88 836 64 
Q 644 216 578 419 
Q 513 622 513 1128 
L 513 2288 
Q 513 2619 452 2700 
Q 391 2781 197 2806 
L 197 2922 
L 1388 2922 
L 1388 925 
Q 1388 613 1417 522 
Q 1447 431 1511 384 
Q 1575 338 1659 338 
Q 1772 338 1863 397 
Q 1988 478 2163 725 
L 2163 2288 
Q 2163 2619 2102 2700 
Q 2041 2781 1847 2806 
L 1847 2922 
L 3038 2922 
z
" transform="scale(0.015625)"/>
       <path id="TimesNewRomanPS-BoldMT-6d" d="M 1428 2922 
L 1428 2538 
Q 1669 2800 1873 2904 
Q 2078 3009 2322 3009 
Q 2603 3009 2793 2878 
Q 2984 2747 3088 2478 
Q 3338 2759 3567 2884 
Q 3797 3009 4047 3009 
Q 4350 3009 4529 2870 
Q 4709 2731 4779 2517 
Q 4850 2303 4850 1834 
L 4850 638 
Q 4850 300 4911 219 
Q 4972 138 5166 113 
L 5166 0 
L 3656 0 
L 3656 113 
Q 3834 128 3919 250 
Q 3975 334 3975 638 
L 3975 1894 
Q 3975 2284 3944 2390 
Q 3913 2497 3845 2548 
Q 3778 2600 3688 2600 
Q 3553 2600 3415 2501 
Q 3278 2403 3138 2206 
L 3138 638 
Q 3138 322 3191 241 
Q 3263 125 3466 113 
L 3466 0 
L 1953 0 
L 1953 113 
Q 2075 119 2145 173 
Q 2216 228 2239 304 
Q 2263 381 2263 638 
L 2263 1894 
Q 2263 2291 2231 2391 
Q 2200 2491 2126 2547 
Q 2053 2603 1969 2603 
Q 1844 2603 1741 2538 
Q 1594 2441 1428 2206 
L 1428 638 
Q 1428 328 1489 229 
Q 1550 131 1744 113 
L 1744 0 
L 238 0 
L 238 113 
Q 422 131 500 231 
Q 553 300 553 638 
L 553 2288 
Q 553 2619 492 2700 
Q 431 2781 238 2806 
L 238 2922 
L 1428 2922 
z
" transform="scale(0.015625)"/>
       <path id="TimesNewRomanPS-BoldMT-62" d="M 1347 4238 
L 1347 2628 
Q 1716 3009 2153 3009 
Q 2453 3009 2718 2832 
Q 2984 2656 3134 2331 
Q 3284 2006 3284 1581 
Q 3284 1103 3093 712 
Q 2903 322 2584 117 
Q 2266 -88 1856 -88 
Q 1619 -88 1434 -12 
Q 1250 63 1072 231 
L 588 -84 
L 481 -84 
L 481 3631 
Q 481 3884 459 3944 
Q 428 4031 361 4073 
Q 294 4116 134 4122 
L 134 4238 
L 1347 4238 
z
M 1347 2350 
L 1347 1050 
Q 1347 653 1366 544 
Q 1397 359 1515 245 
Q 1634 131 1819 131 
Q 1978 131 2092 222 
Q 2206 313 2282 581 
Q 2359 850 2359 1550 
Q 2359 2222 2191 2472 
Q 2069 2653 1863 2653 
Q 1594 2653 1347 2350 
z
" transform="scale(0.015625)"/>
       <path id="TimesNewRomanPS-BoldMT-65" d="M 2691 1566 
L 1088 1566 
Q 1116 984 1397 647 
Q 1613 388 1916 388 
Q 2103 388 2256 492 
Q 2409 597 2584 869 
L 2691 800 
Q 2453 316 2165 114 
Q 1878 -88 1500 -88 
Q 850 -88 516 413 
Q 247 816 247 1413 
Q 247 2144 642 2576 
Q 1038 3009 1569 3009 
Q 2013 3009 2339 2645 
Q 2666 2281 2691 1566 
z
M 1922 1775 
Q 1922 2278 1867 2465 
Q 1813 2653 1697 2750 
Q 1631 2806 1522 2806 
Q 1359 2806 1256 2647 
Q 1072 2369 1072 1884 
L 1072 1775 
L 1922 1775 
z
" transform="scale(0.015625)"/>
       <path id="TimesNewRomanPS-BoldMT-72" d="M 1428 2922 
L 1428 2259 
Q 1719 2713 1937 2861 
Q 2156 3009 2359 3009 
Q 2534 3009 2639 2901 
Q 2744 2794 2744 2597 
Q 2744 2388 2642 2272 
Q 2541 2156 2397 2156 
Q 2231 2156 2109 2262 
Q 1988 2369 1966 2381 
Q 1934 2400 1894 2400 
Q 1803 2400 1722 2331 
Q 1594 2225 1528 2028 
Q 1428 1725 1428 1359 
L 1428 688 
L 1431 513 
Q 1431 334 1453 284 
Q 1491 200 1564 161 
Q 1638 122 1813 113 
L 1813 0 
L 234 0 
L 234 113 
Q 425 128 492 217 
Q 559 306 559 688 
L 559 2303 
Q 559 2553 534 2622 
Q 503 2709 443 2750 
Q 384 2791 234 2806 
L 234 2922 
L 1428 2922 
z
" transform="scale(0.015625)"/>
       <path id="TimesNewRomanPS-BoldMT-20" transform="scale(0.015625)"/>
       <path id="TimesNewRomanPS-BoldMT-6f" d="M 1594 3009 
Q 1975 3009 2303 2812 
Q 2631 2616 2801 2253 
Q 2972 1891 2972 1459 
Q 2972 838 2656 419 
Q 2275 -88 1603 -88 
Q 944 -88 587 375 
Q 231 838 231 1447 
Q 231 2075 595 2542 
Q 959 3009 1594 3009 
z
M 1606 2788 
Q 1447 2788 1333 2667 
Q 1219 2547 1183 2192 
Q 1147 1838 1147 1206 
Q 1147 872 1191 581 
Q 1225 359 1337 243 
Q 1450 128 1594 128 
Q 1734 128 1828 206 
Q 1950 313 1991 503 
Q 2053 800 2053 1703 
Q 2053 2234 1993 2432 
Q 1934 2631 1819 2722 
Q 1738 2788 1606 2788 
z
" transform="scale(0.015625)"/>
       <path id="TimesNewRomanPS-BoldMT-66" d="M 1497 2616 
L 1497 588 
Q 1497 294 1559 219 
Q 1659 103 1928 113 
L 1928 0 
L 206 0 
L 206 113 
Q 403 116 486 158 
Q 569 200 600 275 
Q 631 350 631 588 
L 631 2616 
L 206 2616 
L 206 2922 
L 631 2922 
L 631 3138 
L 628 3284 
Q 628 3734 958 4034 
Q 1288 4334 1850 4334 
Q 2234 4334 2420 4190 
Q 2606 4047 2606 3872 
Q 2606 3731 2490 3628 
Q 2375 3525 2184 3525 
Q 2022 3525 1926 3609 
Q 1831 3694 1831 3797 
Q 1831 3825 1850 3913 
Q 1863 3966 1863 4013 
Q 1863 4078 1825 4109 
Q 1775 4156 1703 4156 
Q 1613 4156 1552 4081 
Q 1491 4006 1491 3841 
L 1497 3294 
L 1497 2922 
L 1928 2922 
L 1928 2616 
L 1497 2616 
z
" transform="scale(0.015625)"/>
       <path id="TimesNewRomanPS-BoldMT-64" d="M 3056 4238 
L 3056 875 
Q 3056 534 3075 472 
Q 3100 369 3170 319 
Q 3241 269 3416 256 
L 3416 153 
L 2181 -88 
L 2181 375 
Q 1959 106 1786 9 
Q 1613 -88 1394 -88 
Q 834 -88 509 413 
Q 247 819 247 1409 
Q 247 1881 409 2254 
Q 572 2628 855 2818 
Q 1138 3009 1463 3009 
Q 1672 3009 1834 2928 
Q 1997 2847 2181 2644 
L 2181 3525 
Q 2181 3859 2153 3928 
Q 2116 4019 2041 4062 
Q 1966 4106 1759 4106 
L 1759 4238 
L 3056 4238 
z
M 2181 2256 
Q 1950 2700 1616 2700 
Q 1500 2700 1425 2638 
Q 1309 2541 1236 2297 
Q 1163 2053 1163 1550 
Q 1163 997 1244 731 
Q 1325 466 1466 347 
Q 1538 288 1663 288 
Q 1938 288 2181 719 
L 2181 2256 
z
" transform="scale(0.015625)"/>
       <path id="TimesNewRomanPS-BoldMT-73" d="M 2063 3003 
L 2109 2006 
L 2003 2006 
Q 1813 2450 1608 2612 
Q 1403 2775 1200 2775 
Q 1072 2775 981 2689 
Q 891 2603 891 2491 
Q 891 2406 953 2328 
Q 1053 2200 1512 1889 
Q 1972 1578 2117 1361 
Q 2263 1144 2263 875 
Q 2263 631 2141 397 
Q 2019 163 1797 37 
Q 1575 -88 1306 -88 
Q 1097 -88 747 44 
Q 653 78 619 78 
Q 516 78 447 -78 
L 344 -78 
L 294 972 
L 400 972 
Q 541 559 786 353 
Q 1031 147 1250 147 
Q 1400 147 1495 239 
Q 1591 331 1591 463 
Q 1591 613 1497 722 
Q 1403 831 1078 1053 
Q 600 1384 459 1559 
Q 253 1816 253 2125 
Q 253 2463 486 2736 
Q 719 3009 1159 3009 
Q 1397 3009 1619 2894 
Q 1703 2847 1756 2847 
Q 1813 2847 1847 2870 
Q 1881 2894 1956 3003 
L 2063 3003 
z
" transform="scale(0.015625)"/>
      </defs>
      <use xlink:href="#TimesNewRomanPS-BoldMT-4e"/>
      <use xlink:href="#TimesNewRomanPS-BoldMT-75" transform="translate(72.216797 0)"/>
      <use xlink:href="#TimesNewRomanPS-BoldMT-6d" transform="translate(127.832031 0)"/>
      <use xlink:href="#TimesNewRomanPS-BoldMT-62" transform="translate(211.132812 0)"/>
      <use xlink:href="#TimesNewRomanPS-BoldMT-65" transform="translate(266.748047 0)"/>
      <use xlink:href="#TimesNewRomanPS-BoldMT-72" transform="translate(311.132812 0)"/>
      <use xlink:href="#TimesNewRomanPS-BoldMT-20" transform="translate(353.767578 0)"/>
      <use xlink:href="#TimesNewRomanPS-BoldMT-6f" transform="translate(378.767578 0)"/>
      <use xlink:href="#TimesNewRomanPS-BoldMT-66" transform="translate(428.767578 0)"/>
      <use xlink:href="#TimesNewRomanPS-BoldMT-20" transform="translate(462.068359 0)"/>
      <use xlink:href="#TimesNewRomanPS-BoldMT-4e" transform="translate(487.068359 0)"/>
      <use xlink:href="#TimesNewRomanPS-BoldMT-6f" transform="translate(559.285156 0)"/>
      <use xlink:href="#TimesNewRomanPS-BoldMT-64" transform="translate(609.285156 0)"/>
      <use xlink:href="#TimesNewRomanPS-BoldMT-65" transform="translate(664.900391 0)"/>
      <use xlink:href="#TimesNewRomanPS-BoldMT-73" transform="translate(709.285156 0)"/>
     </g>
    </g>
   </g>
   <g id="matplotlib.axis_2">
    <g id="ytick_1">
     <g id="line2d_13">
      <path d="M 41.965313 433.70625 
L 634.270313 433.70625 
" clip-path="url(#pff74023f7e)" style="fill: none; stroke-dasharray: 1.85,0.8; stroke-dashoffset: 0; stroke: #cccccc; stroke-width: 0.5"/>
     </g>
     <g id="line2d_14"/>
     <g id="text_8">
      <!-- 0.0 -->
      <g style="fill: #262626" transform="translate(23.465313 437.8725) scale(0.12 -0.12)">
       <defs>
        <path id="TimesNewRomanPSMT-2e" d="M 800 606 
Q 947 606 1047 504 
Q 1147 403 1147 259 
Q 1147 116 1045 14 
Q 944 -88 800 -88 
Q 656 -88 554 14 
Q 453 116 453 259 
Q 453 406 554 506 
Q 656 606 800 606 
z
" transform="scale(0.015625)"/>
       </defs>
       <use xlink:href="#TimesNewRomanPSMT-30"/>
       <use xlink:href="#TimesNewRomanPSMT-2e" transform="translate(50 0)"/>
       <use xlink:href="#TimesNewRomanPSMT-30" transform="translate(75 0)"/>
      </g>
     </g>
    </g>
    <g id="ytick_2">
     <g id="line2d_15">
      <path d="M 41.965313 349.23825 
L 634.270313 349.23825 
" clip-path="url(#pff74023f7e)" style="fill: none; stroke-dasharray: 1.85,0.8; stroke-dashoffset: 0; stroke: #cccccc; stroke-width: 0.5"/>
     </g>
     <g id="line2d_16"/>
     <g id="text_9">
      <!-- 0.2 -->
      <g style="fill: #262626" transform="translate(23.465313 353.4045) scale(0.12 -0.12)">
       <use xlink:href="#TimesNewRomanPSMT-30"/>
       <use xlink:href="#TimesNewRomanPSMT-2e" transform="translate(50 0)"/>
       <use xlink:href="#TimesNewRomanPSMT-32" transform="translate(75 0)"/>
      </g>
     </g>
    </g>
    <g id="ytick_3">
     <g id="line2d_17">
      <path d="M 41.965313 264.77025 
L 634.270313 264.77025 
" clip-path="url(#pff74023f7e)" style="fill: none; stroke-dasharray: 1.85,0.8; stroke-dashoffset: 0; stroke: #cccccc; stroke-width: 0.5"/>
     </g>
     <g id="line2d_18"/>
     <g id="text_10">
      <!-- 0.4 -->
      <g style="fill: #262626" transform="translate(23.465313 268.9365) scale(0.12 -0.12)">
       <defs>
        <path id="TimesNewRomanPSMT-34" d="M 2978 1563 
L 2978 1119 
L 2409 1119 
L 2409 0 
L 1894 0 
L 1894 1119 
L 100 1119 
L 100 1519 
L 2066 4325 
L 2409 4325 
L 2409 1563 
L 2978 1563 
z
M 1894 1563 
L 1894 3666 
L 406 1563 
L 1894 1563 
z
" transform="scale(0.015625)"/>
       </defs>
       <use xlink:href="#TimesNewRomanPSMT-30"/>
       <use xlink:href="#TimesNewRomanPSMT-2e" transform="translate(50 0)"/>
       <use xlink:href="#TimesNewRomanPSMT-34" transform="translate(75 0)"/>
      </g>
     </g>
    </g>
    <g id="ytick_4">
     <g id="line2d_19">
      <path d="M 41.965313 180.30225 
L 634.270313 180.30225 
" clip-path="url(#pff74023f7e)" style="fill: none; stroke-dasharray: 1.85,0.8; stroke-dashoffset: 0; stroke: #cccccc; stroke-width: 0.5"/>
     </g>
     <g id="line2d_20"/>
     <g id="text_11">
      <!-- 0.6 -->
      <g style="fill: #262626" transform="translate(23.465313 184.4685) scale(0.12 -0.12)">
       <use xlink:href="#TimesNewRomanPSMT-30"/>
       <use xlink:href="#TimesNewRomanPSMT-2e" transform="translate(50 0)"/>
       <use xlink:href="#TimesNewRomanPSMT-36" transform="translate(75 0)"/>
      </g>
     </g>
    </g>
    <g id="ytick_5">
     <g id="line2d_21">
      <path d="M 41.965313 95.83425 
L 634.270313 95.83425 
" clip-path="url(#pff74023f7e)" style="fill: none; stroke-dasharray: 1.85,0.8; stroke-dashoffset: 0; stroke: #cccccc; stroke-width: 0.5"/>
     </g>
     <g id="line2d_22"/>
     <g id="text_12">
      <!-- 0.8 -->
      <g style="fill: #262626" transform="translate(23.465313 100.0005) scale(0.12 -0.12)">
       <use xlink:href="#TimesNewRomanPSMT-30"/>
       <use xlink:href="#TimesNewRomanPSMT-2e" transform="translate(50 0)"/>
       <use xlink:href="#TimesNewRomanPSMT-38" transform="translate(75 0)"/>
      </g>
     </g>
    </g>
    <g id="ytick_6">
     <g id="line2d_23">
      <path d="M 41.965313 11.36625 
L 634.270313 11.36625 
" clip-path="url(#pff74023f7e)" style="fill: none; stroke-dasharray: 1.85,0.8; stroke-dashoffset: 0; stroke: #cccccc; stroke-width: 0.5"/>
     </g>
     <g id="line2d_24"/>
     <g id="text_13">
      <!-- 1.0 -->
      <g style="fill: #262626" transform="translate(23.465313 15.5325) scale(0.12 -0.12)">
       <use xlink:href="#TimesNewRomanPSMT-31"/>
       <use xlink:href="#TimesNewRomanPSMT-2e" transform="translate(50 0)"/>
       <use xlink:href="#TimesNewRomanPSMT-30" transform="translate(75 0)"/>
      </g>
     </g>
    </g>
    <g id="text_14">
     <!-- F1-score -->
     <g style="fill: #262626" transform="translate(16.470625 248.066562) rotate(-90) scale(0.14 -0.14)">
      <defs>
       <path id="TimesNewRomanPS-BoldMT-46" d="M 1759 3994 
L 1759 2253 
L 1881 2253 
Q 2163 2253 2341 2337 
Q 2519 2422 2642 2622 
Q 2766 2822 2803 3163 
L 2913 3163 
L 2913 1034 
L 2803 1034 
Q 2744 1638 2480 1830 
Q 2216 2022 1881 2022 
L 1759 2022 
L 1759 725 
Q 1759 400 1795 319 
Q 1831 238 1936 177 
Q 2041 116 2219 116 
L 2359 116 
L 2359 0 
L 144 0 
L 144 116 
L 284 116 
Q 469 116 581 181 
Q 663 225 706 331 
Q 741 406 741 725 
L 741 3513 
Q 741 3838 706 3919 
Q 672 4000 567 4061 
Q 463 4122 284 4122 
L 144 4122 
L 144 4238 
L 3719 4238 
L 3719 3022 
L 3591 3022 
Q 3547 3450 3367 3656 
Q 3188 3863 2847 3947 
Q 2659 3994 2153 3994 
L 1759 3994 
z
" transform="scale(0.015625)"/>
       <path id="TimesNewRomanPS-BoldMT-31" d="M 2084 4325 
L 2084 859 
Q 2084 469 2118 361 
Q 2153 253 2262 184 
Q 2372 116 2613 116 
L 2709 116 
L 2709 0 
L 478 0 
L 478 116 
L 591 116 
Q 863 116 978 178 
Q 1094 241 1134 350 
Q 1175 459 1175 859 
L 1175 3056 
Q 1175 3350 1147 3423 
Q 1119 3497 1042 3548 
Q 966 3600 866 3600 
Q 706 3600 478 3500 
L 422 3613 
L 1981 4325 
L 2084 4325 
z
" transform="scale(0.015625)"/>
       <path id="TimesNewRomanPS-BoldMT-2d" d="M 1978 1147 
L 156 1147 
L 156 1794 
L 1978 1794 
L 1978 1147 
z
" transform="scale(0.015625)"/>
       <path id="TimesNewRomanPS-BoldMT-63" d="M 2600 753 
L 2697 678 
Q 2491 291 2183 101 
Q 1875 -88 1528 -88 
Q 944 -88 594 353 
Q 244 794 244 1413 
Q 244 2009 563 2463 
Q 947 3009 1622 3009 
Q 2075 3009 2342 2781 
Q 2609 2553 2609 2272 
Q 2609 2094 2501 1987 
Q 2394 1881 2219 1881 
Q 2034 1881 1914 2003 
Q 1794 2125 1766 2438 
Q 1747 2634 1675 2713 
Q 1603 2791 1506 2791 
Q 1356 2791 1250 2631 
Q 1088 2391 1088 1894 
Q 1088 1481 1219 1104 
Q 1350 728 1578 544 
Q 1750 409 1984 409 
Q 2138 409 2275 481 
Q 2413 553 2600 753 
z
" transform="scale(0.015625)"/>
      </defs>
      <use xlink:href="#TimesNewRomanPS-BoldMT-46"/>
      <use xlink:href="#TimesNewRomanPS-BoldMT-31" transform="translate(61.083984 0)"/>
      <use xlink:href="#TimesNewRomanPS-BoldMT-2d" transform="translate(111.083984 0)"/>
      <use xlink:href="#TimesNewRomanPS-BoldMT-73" transform="translate(144.384766 0)"/>
      <use xlink:href="#TimesNewRomanPS-BoldMT-63" transform="translate(183.300781 0)"/>
      <use xlink:href="#TimesNewRomanPS-BoldMT-6f" transform="translate(227.685547 0)"/>
      <use xlink:href="#TimesNewRomanPS-BoldMT-72" transform="translate(277.685547 0)"/>
      <use xlink:href="#TimesNewRomanPS-BoldMT-65" transform="translate(320.320312 0)"/>
     </g>
    </g>
   </g>
   <g id="line2d_25">
    <path d="M 68.888267 66.27045 
L 145.810994 78.94065 
L 222.733722 95.83425 
L 299.656449 116.95125 
L 415.04054 142.29165 
L 607.347358 184.52565 
" clip-path="url(#pff74023f7e)" style="fill: none; stroke-dasharray: 18.5,8; stroke-dashoffset: 0; stroke: #c084fc; stroke-width: 5"/>
    <defs>
     <path id="mb6f45f1f6a" d="M 0 4.5 
C 1.193414 4.5 2.338109 4.025852 3.181981 3.181981 
C 4.025852 2.338109 4.5 1.193414 4.5 0 
C 4.5 -1.193414 4.025852 -2.338109 3.181981 -3.181981 
C 2.338109 -4.025852 1.193414 -4.5 0 -4.5 
C -1.193414 -4.5 -2.338109 -4.025852 -3.181981 -3.181981 
C -4.025852 -2.338109 -4.5 -1.193414 -4.5 0 
C -4.5 1.193414 -4.025852 2.338109 -3.181981 3.181981 
C -2.338109 4.025852 -1.193414 4.5 0 4.5 
z
" style="stroke: #c084fc"/>
    </defs>
    <g clip-path="url(#pff74023f7e)">
     <use xlink:href="#mb6f45f1f6a" x="68.888267" y="66.27045" style="fill: #c084fc; stroke: #c084fc"/>
     <use xlink:href="#mb6f45f1f6a" x="145.810994" y="78.94065" style="fill: #c084fc; stroke: #c084fc"/>
     <use xlink:href="#mb6f45f1f6a" x="222.733722" y="95.83425" style="fill: #c084fc; stroke: #c084fc"/>
     <use xlink:href="#mb6f45f1f6a" x="299.656449" y="116.95125" style="fill: #c084fc; stroke: #c084fc"/>
     <use xlink:href="#mb6f45f1f6a" x="415.04054" y="142.29165" style="fill: #c084fc; stroke: #c084fc"/>
     <use xlink:href="#mb6f45f1f6a" x="607.347358" y="184.52565" style="fill: #c084fc; stroke: #c084fc"/>
    </g>
   </g>
   <g id="line2d_26">
    <path d="M 68.888267 80.20767 
L 145.810994 122.44167 
L 222.733722 132.15549 
L 299.656449 154.53951 
L 415.04054 183.68097 
L 607.347358 242.80857 
" clip-path="url(#pff74023f7e)" style="fill: none; stroke: #1f77b4; stroke-width: 5; stroke-linecap: round"/>
    <defs>
     <path id="m2406756e05" d="M -4.5 4.5 
L 4.5 4.5 
L 4.5 -4.5 
L -4.5 -4.5 
z
" style="stroke: #1f77b4; stroke-linejoin: miter"/>
    </defs>
    <g clip-path="url(#pff74023f7e)">
     <use xlink:href="#m2406756e05" x="68.888267" y="80.20767" style="fill: #1f77b4; stroke: #1f77b4; stroke-linejoin: miter"/>
     <use xlink:href="#m2406756e05" x="145.810994" y="122.44167" style="fill: #1f77b4; stroke: #1f77b4; stroke-linejoin: miter"/>
     <use xlink:href="#m2406756e05" x="222.733722" y="132.15549" style="fill: #1f77b4; stroke: #1f77b4; stroke-linejoin: miter"/>
     <use xlink:href="#m2406756e05" x="299.656449" y="154.53951" style="fill: #1f77b4; stroke: #1f77b4; stroke-linejoin: miter"/>
     <use xlink:href="#m2406756e05" x="415.04054" y="183.68097" style="fill: #1f77b4; stroke: #1f77b4; stroke-linejoin: miter"/>
     <use xlink:href="#m2406756e05" x="607.347358" y="242.80857" style="fill: #1f77b4; stroke: #1f77b4; stroke-linejoin: miter"/>
    </g>
   </g>
   <g id="line2d_27">
    <path d="M 68.888267 120.75231 
L 145.810994 136.80123 
L 222.733722 171.01077 
L 299.656449 203.10861 
L 415.04054 198.88521 
L 607.347358 240.69687 
" clip-path="url(#pff74023f7e)" style="fill: none; stroke-dasharray: 18.5,8; stroke-dashoffset: 0; stroke: #e6b800; stroke-width: 5"/>
    <defs>
     <path id="m62a0575e6a" d="M 0 -4.5 
L -4.5 4.5 
L 4.5 4.5 
z
" style="stroke: #e6b800; stroke-linejoin: miter"/>
    </defs>
    <g clip-path="url(#pff74023f7e)">
     <use xlink:href="#m62a0575e6a" x="68.888267" y="120.75231" style="fill: #e6b800; stroke: #e6b800; stroke-linejoin: miter"/>
     <use xlink:href="#m62a0575e6a" x="145.810994" y="136.80123" style="fill: #e6b800; stroke: #e6b800; stroke-linejoin: miter"/>
     <use xlink:href="#m62a0575e6a" x="222.733722" y="171.01077" style="fill: #e6b800; stroke: #e6b800; stroke-linejoin: miter"/>
     <use xlink:href="#m62a0575e6a" x="299.656449" y="203.10861" style="fill: #e6b800; stroke: #e6b800; stroke-linejoin: miter"/>
     <use xlink:href="#m62a0575e6a" x="415.04054" y="198.88521" style="fill: #e6b800; stroke: #e6b800; stroke-linejoin: miter"/>
     <use xlink:href="#m62a0575e6a" x="607.347358" y="240.69687" style="fill: #e6b800; stroke: #e6b800; stroke-linejoin: miter"/>
    </g>
   </g>
   <g id="line2d_28">
    <path d="M 68.888267 141.44697 
L 145.810994 185.37033 
L 222.733722 203.53095 
L 299.656449 237.74049 
L 415.04054 262.23621 
L 607.347358 306.58191 
" clip-path="url(#pff74023f7e)" style="fill: none; stroke: #ffa500; stroke-width: 5; stroke-linecap: round"/>
    <defs>
     <path id="m50ae9226ea" d="M 0 6.363961 
L 6.363961 0 
L 0 -6.363961 
L -6.363961 0 
z
" style="stroke: #ffa500; stroke-linejoin: miter"/>
    </defs>
    <g clip-path="url(#pff74023f7e)">
     <use xlink:href="#m50ae9226ea" x="68.888267" y="141.44697" style="fill: #ffa500; stroke: #ffa500; stroke-linejoin: miter"/>
     <use xlink:href="#m50ae9226ea" x="145.810994" y="185.37033" style="fill: #ffa500; stroke: #ffa500; stroke-linejoin: miter"/>
     <use xlink:href="#m50ae9226ea" x="222.733722" y="203.53095" style="fill: #ffa500; stroke: #ffa500; stroke-linejoin: miter"/>
     <use xlink:href="#m50ae9226ea" x="299.656449" y="237.74049" style="fill: #ffa500; stroke: #ffa500; stroke-linejoin: miter"/>
     <use xlink:href="#m50ae9226ea" x="415.04054" y="262.23621" style="fill: #ffa500; stroke: #ffa500; stroke-linejoin: miter"/>
     <use xlink:href="#m50ae9226ea" x="607.347358" y="306.58191" style="fill: #ffa500; stroke: #ffa500; stroke-linejoin: miter"/>
    </g>
   </g>
   <g id="patch_3">
    <path d="M 41.965313 433.70625 
L 41.965313 11.36625 
" style="fill: none; stroke: #cccccc; stroke-linejoin: miter; stroke-linecap: square"/>
   </g>
   <g id="patch_4">
    <path d="M 634.270313 433.70625 
L 634.270313 11.36625 
" style="fill: none; stroke: #cccccc; stroke-linejoin: miter; stroke-linecap: square"/>
   </g>
   <g id="patch_5">
    <path d="M 41.965313 433.70625 
L 634.270313 433.70625 
" style="fill: none; stroke: #cccccc; stroke-linejoin: miter; stroke-linecap: square"/>
   </g>
   <g id="patch_6">
    <path d="M 41.965313 11.36625 
L 634.270313 11.36625 
" style="fill: none; stroke: #cccccc; stroke-linejoin: miter; stroke-linecap: square"/>
   </g>
   <g id="legend_1">
    <g id="line2d_29">
     <path d="M 512.450625 28.86625 
L 526.450625 28.86625 
L 540.450625 28.86625 
" style="fill: none; stroke-dasharray: 18.5,8; stroke-dashoffset: 0; stroke: #c084fc; stroke-width: 5"/>
     <g>
      <use xlink:href="#mb6f45f1f6a" x="526.450625" y="28.86625" style="fill: #c084fc; stroke: #c084fc"/>
     </g>
    </g>
    <g id="text_15">
     <!-- CFNO-P -->
     <g style="fill: #262626" transform="translate(551.650625 33.76625) scale(0.14 -0.14)">
      <defs>
       <path id="TimesNewRomanPS-BoldMT-43" d="M 4272 4334 
L 4272 2866 
L 4150 2866 
Q 4013 3441 3638 3747 
Q 3263 4053 2788 4053 
Q 2391 4053 2059 3825 
Q 1728 3597 1575 3228 
Q 1378 2756 1378 2178 
Q 1378 1609 1522 1142 
Q 1666 675 1972 436 
Q 2278 197 2766 197 
Q 3166 197 3498 372 
Q 3831 547 4200 975 
L 4200 609 
Q 3844 238 3458 70 
Q 3072 -97 2556 -97 
Q 1878 -97 1351 175 
Q 825 447 539 956 
Q 253 1466 253 2041 
Q 253 2647 570 3190 
Q 888 3734 1427 4034 
Q 1966 4334 2572 4334 
Q 3019 4334 3516 4141 
Q 3803 4028 3881 4028 
Q 3981 4028 4054 4101 
Q 4128 4175 4150 4334 
L 4272 4334 
z
" transform="scale(0.015625)"/>
       <path id="TimesNewRomanPS-BoldMT-4f" d="M 2472 4297 
Q 3484 4334 4117 3706 
Q 4750 3078 4750 2134 
Q 4750 1328 4278 716 
Q 3653 -97 2513 -97 
Q 1369 -97 744 678 
Q 250 1291 250 2131 
Q 250 3075 892 3704 
Q 1534 4334 2472 4297 
z
M 2509 4097 
Q 1928 4097 1625 3503 
Q 1378 3016 1378 2103 
Q 1378 1019 1759 500 
Q 2025 138 2503 138 
Q 2825 138 3041 294 
Q 3316 494 3469 933 
Q 3622 1372 3622 2078 
Q 3622 2919 3465 3336 
Q 3309 3753 3067 3925 
Q 2825 4097 2509 4097 
z
" transform="scale(0.015625)"/>
       <path id="TimesNewRomanPS-BoldMT-50" d="M 1728 1919 
L 1728 744 
Q 1728 400 1770 311 
Q 1813 222 1920 169 
Q 2028 116 2316 116 
L 2316 0 
L 163 0 
L 163 116 
Q 456 116 561 170 
Q 666 225 708 312 
Q 750 400 750 744 
L 750 3494 
Q 750 3838 708 3927 
Q 666 4016 559 4069 
Q 453 4122 163 4122 
L 163 4238 
L 2009 4238 
Q 2922 4238 3319 3913 
Q 3716 3588 3716 3100 
Q 3716 2688 3459 2394 
Q 3203 2100 2753 1994 
Q 2450 1919 1728 1919 
z
M 1728 3994 
L 1728 2163 
Q 1831 2156 1884 2156 
Q 2266 2156 2472 2382 
Q 2678 2609 2678 3084 
Q 2678 3556 2472 3775 
Q 2266 3994 1856 3994 
L 1728 3994 
z
" transform="scale(0.015625)"/>
      </defs>
      <use xlink:href="#TimesNewRomanPS-BoldMT-43"/>
      <use xlink:href="#TimesNewRomanPS-BoldMT-46" transform="translate(72.216797 0)"/>
      <use xlink:href="#TimesNewRomanPS-BoldMT-4e" transform="translate(133.300781 0)"/>
      <use xlink:href="#TimesNewRomanPS-BoldMT-4f" transform="translate(205.517578 0)"/>
      <use xlink:href="#TimesNewRomanPS-BoldMT-2d" transform="translate(283.300781 0)"/>
      <use xlink:href="#TimesNewRomanPS-BoldMT-50" transform="translate(316.601562 0)"/>
     </g>
    </g>
    <g id="line2d_30">
     <path d="M 512.450625 48.660937 
L 526.450625 48.660937 
L 540.450625 48.660937 
" style="fill: none; stroke: #1f77b4; stroke-width: 5; stroke-linecap: round"/>
     <g>
      <use xlink:href="#m2406756e05" x="526.450625" y="48.660937" style="fill: #1f77b4; stroke: #1f77b4; stroke-linejoin: miter"/>
     </g>
    </g>
    <g id="text_16">
     <!-- CUTS+ -->
     <g style="fill: #262626" transform="translate(551.650625 53.560937) scale(0.14 -0.14)">
      <defs>
       <path id="TimesNewRomanPS-BoldMT-55" d="M 150 4238 
L 2338 4238 
L 2338 4122 
L 2228 4122 
Q 1981 4122 1889 4070 
Q 1797 4019 1758 3928 
Q 1719 3838 1719 3475 
L 1719 1400 
Q 1719 831 1805 647 
Q 1891 463 2087 341 
Q 2284 219 2584 219 
Q 2928 219 3170 373 
Q 3413 528 3533 800 
Q 3653 1072 3653 1747 
L 3653 3475 
Q 3653 3759 3593 3881 
Q 3534 4003 3444 4050 
Q 3303 4122 3047 4122 
L 3047 4238 
L 4513 4238 
L 4513 4122 
L 4425 4122 
Q 4247 4122 4128 4050 
Q 4009 3978 3956 3834 
Q 3916 3734 3916 3475 
L 3916 1866 
Q 3916 1119 3817 787 
Q 3719 456 3337 178 
Q 2956 -100 2297 -100 
Q 1747 -100 1447 47 
Q 1038 247 869 559 
Q 700 872 700 1400 
L 700 3475 
Q 700 3841 659 3930 
Q 619 4019 519 4072 
Q 419 4125 150 4122 
L 150 4238 
z
" transform="scale(0.015625)"/>
       <path id="TimesNewRomanPS-BoldMT-54" d="M 4038 4238 
L 4038 3091 
L 3925 3091 
Q 3825 3488 3703 3661 
Q 3581 3834 3369 3938 
Q 3250 3994 2953 3994 
L 2638 3994 
L 2638 725 
Q 2638 400 2673 319 
Q 2709 238 2814 177 
Q 2919 116 3100 116 
L 3241 116 
L 3241 0 
L 1022 0 
L 1022 116 
L 1163 116 
Q 1347 116 1459 181 
Q 1541 225 1588 331 
Q 1622 406 1622 725 
L 1622 3994 
L 1316 3994 
Q 888 3994 694 3813 
Q 422 3559 350 3091 
L 231 3091 
L 231 4238 
L 4038 4238 
z
" transform="scale(0.015625)"/>
       <path id="TimesNewRomanPS-BoldMT-53" d="M 3006 4334 
L 3041 2922 
L 2913 2922 
Q 2822 3453 2467 3776 
Q 2113 4100 1700 4100 
Q 1381 4100 1195 3929 
Q 1009 3759 1009 3538 
Q 1009 3397 1075 3288 
Q 1166 3141 1366 2997 
Q 1513 2894 2044 2631 
Q 2788 2266 3047 1941 
Q 3303 1616 3303 1197 
Q 3303 666 2889 283 
Q 2475 -100 1838 -100 
Q 1638 -100 1459 -59 
Q 1281 -19 1013 94 
Q 863 156 766 156 
Q 684 156 593 93 
Q 503 31 447 -97 
L 331 -97 
L 331 1503 
L 447 1503 
Q 584 828 976 473 
Q 1369 119 1822 119 
Q 2172 119 2380 309 
Q 2588 500 2588 753 
Q 2588 903 2508 1043 
Q 2428 1184 2265 1311 
Q 2103 1438 1691 1641 
Q 1113 1925 859 2125 
Q 606 2325 470 2572 
Q 334 2819 334 3116 
Q 334 3622 706 3978 
Q 1078 4334 1644 4334 
Q 1850 4334 2044 4284 
Q 2191 4247 2402 4145 
Q 2613 4044 2697 4044 
Q 2778 4044 2825 4094 
Q 2872 4144 2913 4334 
L 3006 4334 
z
" transform="scale(0.015625)"/>
       <path id="TimesNewRomanPS-BoldMT-2b" d="M 125 2325 
L 1628 2325 
L 1628 3825 
L 2038 3825 
L 2038 2325 
L 3541 2325 
L 3541 1913 
L 2038 1913 
L 2038 425 
L 1628 425 
L 1628 1913 
L 125 1913 
L 125 2325 
z
" transform="scale(0.015625)"/>
      </defs>
      <use xlink:href="#TimesNewRomanPS-BoldMT-43"/>
      <use xlink:href="#TimesNewRomanPS-BoldMT-55" transform="translate(72.216797 0)"/>
      <use xlink:href="#TimesNewRomanPS-BoldMT-54" transform="translate(144.433594 0)"/>
      <use xlink:href="#TimesNewRomanPS-BoldMT-53" transform="translate(211.132812 0)"/>
      <use xlink:href="#TimesNewRomanPS-BoldMT-2b" transform="translate(266.748047 0)"/>
     </g>
    </g>
    <g id="line2d_31">
     <path d="M 512.450625 68.455625 
L 526.450625 68.455625 
L 540.450625 68.455625 
" style="fill: none; stroke-dasharray: 18.5,8; stroke-dashoffset: 0; stroke: #e6b800; stroke-width: 5"/>
     <g>
      <use xlink:href="#m62a0575e6a" x="526.450625" y="68.455625" style="fill: #e6b800; stroke: #e6b800; stroke-linejoin: miter"/>
     </g>
    </g>
    <g id="text_17">
     <!-- eSRU -->
     <g style="fill: #262626" transform="translate(551.650625 73.355625) scale(0.14 -0.14)">
      <defs>
       <path id="TimesNewRomanPS-BoldMT-52" d="M 1700 1931 
L 1700 744 
Q 1700 400 1742 311 
Q 1784 222 1890 169 
Q 1997 116 2288 116 
L 2288 0 
L 119 0 
L 119 116 
Q 413 116 517 170 
Q 622 225 664 312 
Q 706 400 706 744 
L 706 3494 
Q 706 3838 664 3927 
Q 622 4016 515 4069 
Q 409 4122 119 4122 
L 119 4238 
L 2088 4238 
Q 2856 4238 3212 4131 
Q 3569 4025 3794 3739 
Q 4019 3453 4019 3069 
Q 4019 2600 3681 2294 
Q 3466 2100 3078 2003 
L 4097 569 
Q 4297 291 4381 222 
Q 4509 125 4678 116 
L 4678 0 
L 3344 0 
L 1978 1931 
L 1700 1931 
z
M 1700 4009 
L 1700 2153 
L 1878 2153 
Q 2313 2153 2528 2233 
Q 2744 2313 2867 2520 
Q 2991 2728 2991 3063 
Q 2991 3547 2764 3778 
Q 2538 4009 2034 4009 
L 1700 4009 
z
" transform="scale(0.015625)"/>
      </defs>
      <use xlink:href="#TimesNewRomanPS-BoldMT-65"/>
      <use xlink:href="#TimesNewRomanPS-BoldMT-53" transform="translate(44.384766 0)"/>
      <use xlink:href="#TimesNewRomanPS-BoldMT-52" transform="translate(100 0)"/>
      <use xlink:href="#TimesNewRomanPS-BoldMT-55" transform="translate(172.216797 0)"/>
     </g>
    </g>
    <g id="line2d_32">
     <path d="M 512.450625 88.250312 
L 526.450625 88.250312 
L 540.450625 88.250312 
" style="fill: none; stroke: #ffa500; stroke-width: 5; stroke-linecap: round"/>
     <g>
      <use xlink:href="#m50ae9226ea" x="526.450625" y="88.250312" style="fill: #ffa500; stroke: #ffa500; stroke-linejoin: miter"/>
     </g>
    </g>
    <g id="text_18">
     <!-- CSL-HNTS -->
     <g style="fill: #262626" transform="translate(551.650625 93.150312) scale(0.14 -0.14)">
      <defs>
       <path id="TimesNewRomanPS-BoldMT-4c" d="M 4041 1488 
L 3881 0 
L 119 0 
L 119 116 
L 259 116 
Q 444 116 556 181 
Q 638 225 681 331 
Q 716 406 716 725 
L 716 3513 
Q 716 3838 681 3919 
Q 647 4000 542 4061 
Q 438 4122 259 4122 
L 119 4122 
L 119 4238 
L 2378 4238 
L 2378 4122 
L 2194 4122 
Q 2009 4122 1897 4056 
Q 1816 4013 1769 3906 
Q 1734 3831 1734 3513 
L 1734 813 
Q 1734 488 1771 398 
Q 1809 309 1919 266 
Q 1997 238 2297 238 
L 2650 238 
Q 2988 238 3213 356 
Q 3438 475 3602 731 
Q 3766 988 3913 1488 
L 4041 1488 
z
" transform="scale(0.015625)"/>
       <path id="TimesNewRomanPS-BoldMT-48" d="M 1750 2038 
L 1750 725 
Q 1750 400 1786 319 
Q 1822 238 1926 177 
Q 2031 116 2209 116 
L 2350 116 
L 2350 0 
L 134 0 
L 134 116 
L 275 116 
Q 459 116 572 181 
Q 653 225 697 331 
Q 731 406 731 725 
L 731 3513 
Q 731 3838 697 3919 
Q 663 4000 558 4061 
Q 453 4122 275 4122 
L 134 4122 
L 134 4238 
L 2350 4238 
L 2350 4122 
L 2209 4122 
Q 2025 4122 1913 4056 
Q 1831 4013 1784 3906 
Q 1750 3831 1750 3513 
L 1750 2313 
L 3247 2313 
L 3247 3513 
Q 3247 3838 3212 3919 
Q 3178 4000 3072 4061 
Q 2966 4122 2788 4122 
L 2650 4122 
L 2650 4238 
L 4863 4238 
L 4863 4122 
L 4725 4122 
Q 4538 4122 4428 4056 
Q 4347 4013 4300 3906 
Q 4266 3831 4266 3513 
L 4266 725 
Q 4266 400 4300 319 
Q 4334 238 4440 177 
Q 4547 116 4725 116 
L 4863 116 
L 4863 0 
L 2650 0 
L 2650 116 
L 2788 116 
Q 2975 116 3084 181 
Q 3166 225 3213 331 
Q 3247 406 3247 725 
L 3247 2038 
L 1750 2038 
z
" transform="scale(0.015625)"/>
      </defs>
      <use xlink:href="#TimesNewRomanPS-BoldMT-43"/>
      <use xlink:href="#TimesNewRomanPS-BoldMT-53" transform="translate(72.216797 0)"/>
      <use xlink:href="#TimesNewRomanPS-BoldMT-4c" transform="translate(127.832031 0)"/>
      <use xlink:href="#TimesNewRomanPS-BoldMT-2d" transform="translate(194.53125 0)"/>
      <use xlink:href="#TimesNewRomanPS-BoldMT-48" transform="translate(227.832031 0)"/>
      <use xlink:href="#TimesNewRomanPS-BoldMT-4e" transform="translate(305.615234 0)"/>
      <use xlink:href="#TimesNewRomanPS-BoldMT-54" transform="translate(377.832031 0)"/>
      <use xlink:href="#TimesNewRomanPS-BoldMT-53" transform="translate(444.53125 0)"/>
     </g>
    </g>
   </g>
  </g>
  <g id="axes_2">
   <g id="patch_7">
    <path d="M 685.060313 433.70625 
L 1277.365313 433.70625 
L 1277.365313 11.36625 
L 685.060313 11.36625 
z
" style="fill: #ffffff"/>
   </g>
   <g id="matplotlib.axis_3">
    <g id="xtick_7">
     <g id="line2d_33">
      <path d="M 711.983267 433.70625 
L 711.983267 11.36625 
" clip-path="url(#p1694aae87d)" style="fill: none; stroke-dasharray: 1.85,0.8; stroke-dashoffset: 0; stroke: #cccccc; stroke-width: 0.5"/>
     </g>
     <g id="line2d_34"/>
     <g id="text_19">
      <!-- 6 -->
      <g style="fill: #262626" transform="translate(708.983267 445.53875) scale(0.12 -0.12)">
       <use xlink:href="#TimesNewRomanPSMT-36"/>
      </g>
     </g>
    </g>
    <g id="xtick_8">
     <g id="line2d_35">
      <path d="M 788.905994 433.70625 
L 788.905994 11.36625 
" clip-path="url(#p1694aae87d)" style="fill: none; stroke-dasharray: 1.85,0.8; stroke-dashoffset: 0; stroke: #cccccc; stroke-width: 0.5"/>
     </g>
     <g id="line2d_36"/>
     <g id="text_20">
      <!-- 8 -->
      <g style="fill: #262626" transform="translate(785.905994 445.53875) scale(0.12 -0.12)">
       <use xlink:href="#TimesNewRomanPSMT-38"/>
      </g>
     </g>
    </g>
    <g id="xtick_9">
     <g id="line2d_37">
      <path d="M 865.828722 433.70625 
L 865.828722 11.36625 
" clip-path="url(#p1694aae87d)" style="fill: none; stroke-dasharray: 1.85,0.8; stroke-dashoffset: 0; stroke: #cccccc; stroke-width: 0.5"/>
     </g>
     <g id="line2d_38"/>
     <g id="text_21">
      <!-- 10 -->
      <g style="fill: #262626" transform="translate(859.828722 445.53875) scale(0.12 -0.12)">
       <use xlink:href="#TimesNewRomanPSMT-31"/>
       <use xlink:href="#TimesNewRomanPSMT-30" transform="translate(50 0)"/>
      </g>
     </g>
    </g>
    <g id="xtick_10">
     <g id="line2d_39">
      <path d="M 942.751449 433.70625 
L 942.751449 11.36625 
" clip-path="url(#p1694aae87d)" style="fill: none; stroke-dasharray: 1.85,0.8; stroke-dashoffset: 0; stroke: #cccccc; stroke-width: 0.5"/>
     </g>
     <g id="line2d_40"/>
     <g id="text_22">
      <!-- 12 -->
      <g style="fill: #262626" transform="translate(936.751449 445.53875) scale(0.12 -0.12)">
       <use xlink:href="#TimesNewRomanPSMT-31"/>
       <use xlink:href="#TimesNewRomanPSMT-32" transform="translate(50 0)"/>
      </g>
     </g>
    </g>
    <g id="xtick_11">
     <g id="line2d_41">
      <path d="M 1058.13554 433.70625 
L 1058.13554 11.36625 
" clip-path="url(#p1694aae87d)" style="fill: none; stroke-dasharray: 1.85,0.8; stroke-dashoffset: 0; stroke: #cccccc; stroke-width: 0.5"/>
     </g>
     <g id="line2d_42"/>
     <g id="text_23">
      <!-- 15 -->
      <g style="fill: #262626" transform="translate(1052.13554 445.53875) scale(0.12 -0.12)">
       <use xlink:href="#TimesNewRomanPSMT-31"/>
       <use xlink:href="#TimesNewRomanPSMT-35" transform="translate(50 0)"/>
      </g>
     </g>
    </g>
    <g id="xtick_12">
     <g id="line2d_43">
      <path d="M 1250.442358 433.70625 
L 1250.442358 11.36625 
" clip-path="url(#p1694aae87d)" style="fill: none; stroke-dasharray: 1.85,0.8; stroke-dashoffset: 0; stroke: #cccccc; stroke-width: 0.5"/>
     </g>
     <g id="line2d_44"/>
     <g id="text_24">
      <!-- 20 -->
      <g style="fill: #262626" transform="translate(1244.442358 445.53875) scale(0.12 -0.12)">
       <use xlink:href="#TimesNewRomanPSMT-32"/>
       <use xlink:href="#TimesNewRomanPSMT-30" transform="translate(50 0)"/>
      </g>
     </g>
    </g>
    <g id="text_25">
     <!-- Number of Nodes -->
     <g style="fill: #262626" transform="translate(928.838594 461.37625) scale(0.14 -0.14)">
      <use xlink:href="#TimesNewRomanPS-BoldMT-4e"/>
      <use xlink:href="#TimesNewRomanPS-BoldMT-75" transform="translate(72.216797 0)"/>
      <use xlink:href="#TimesNewRomanPS-BoldMT-6d" transform="translate(127.832031 0)"/>
      <use xlink:href="#TimesNewRomanPS-BoldMT-62" transform="translate(211.132812 0)"/>
      <use xlink:href="#TimesNewRomanPS-BoldMT-65" transform="translate(266.748047 0)"/>
      <use xlink:href="#TimesNewRomanPS-BoldMT-72" transform="translate(311.132812 0)"/>
      <use xlink:href="#TimesNewRomanPS-BoldMT-20" transform="translate(353.767578 0)"/>
      <use xlink:href="#TimesNewRomanPS-BoldMT-6f" transform="translate(378.767578 0)"/>
      <use xlink:href="#TimesNewRomanPS-BoldMT-66" transform="translate(428.767578 0)"/>
      <use xlink:href="#TimesNewRomanPS-BoldMT-20" transform="translate(462.068359 0)"/>
      <use xlink:href="#TimesNewRomanPS-BoldMT-4e" transform="translate(487.068359 0)"/>
      <use xlink:href="#TimesNewRomanPS-BoldMT-6f" transform="translate(559.285156 0)"/>
      <use xlink:href="#TimesNewRomanPS-BoldMT-64" transform="translate(609.285156 0)"/>
      <use xlink:href="#TimesNewRomanPS-BoldMT-65" transform="translate(664.900391 0)"/>
      <use xlink:href="#TimesNewRomanPS-BoldMT-73" transform="translate(709.285156 0)"/>
     </g>
    </g>
   </g>
   <g id="matplotlib.axis_4">
    <g id="ytick_7">
     <g id="line2d_45">
      <path d="M 685.060313 423.578555 
L 1277.365313 423.578555 
" clip-path="url(#p1694aae87d)" style="fill: none; stroke-dasharray: 1.85,0.8; stroke-dashoffset: 0; stroke: #cccccc; stroke-width: 0.5"/>
     </g>
     <g id="line2d_46"/>
     <g id="text_26">
      <!-- 0 -->
      <g style="fill: #262626" transform="translate(675.560313 427.744805) scale(0.12 -0.12)">
       <use xlink:href="#TimesNewRomanPSMT-30"/>
      </g>
     </g>
    </g>
    <g id="ytick_8">
     <g id="line2d_47">
      <path d="M 685.060313 363.114704 
L 1277.365313 363.114704 
" clip-path="url(#p1694aae87d)" style="fill: none; stroke-dasharray: 1.85,0.8; stroke-dashoffset: 0; stroke: #cccccc; stroke-width: 0.5"/>
     </g>
     <g id="line2d_48"/>
     <g id="text_27">
      <!-- 20 -->
      <g style="fill: #262626" transform="translate(669.560313 367.280954) scale(0.12 -0.12)">
       <use xlink:href="#TimesNewRomanPSMT-32"/>
       <use xlink:href="#TimesNewRomanPSMT-30" transform="translate(50 0)"/>
      </g>
     </g>
    </g>
    <g id="ytick_9">
     <g id="line2d_49">
      <path d="M 685.060313 302.650853 
L 1277.365313 302.650853 
" clip-path="url(#p1694aae87d)" style="fill: none; stroke-dasharray: 1.85,0.8; stroke-dashoffset: 0; stroke: #cccccc; stroke-width: 0.5"/>
     </g>
     <g id="line2d_50"/>
     <g id="text_28">
      <!-- 40 -->
      <g style="fill: #262626" transform="translate(669.560313 306.817103) scale(0.12 -0.12)">
       <use xlink:href="#TimesNewRomanPSMT-34"/>
       <use xlink:href="#TimesNewRomanPSMT-30" transform="translate(50 0)"/>
      </g>
     </g>
    </g>
    <g id="ytick_10">
     <g id="line2d_51">
      <path d="M 685.060313 242.187002 
L 1277.365313 242.187002 
" clip-path="url(#p1694aae87d)" style="fill: none; stroke-dasharray: 1.85,0.8; stroke-dashoffset: 0; stroke: #cccccc; stroke-width: 0.5"/>
     </g>
     <g id="line2d_52"/>
     <g id="text_29">
      <!-- 60 -->
      <g style="fill: #262626" transform="translate(669.560313 246.353252) scale(0.12 -0.12)">
       <use xlink:href="#TimesNewRomanPSMT-36"/>
       <use xlink:href="#TimesNewRomanPSMT-30" transform="translate(50 0)"/>
      </g>
     </g>
    </g>
    <g id="ytick_11">
     <g id="line2d_53">
      <path d="M 685.060313 181.723151 
L 1277.365313 181.723151 
" clip-path="url(#p1694aae87d)" style="fill: none; stroke-dasharray: 1.85,0.8; stroke-dashoffset: 0; stroke: #cccccc; stroke-width: 0.5"/>
     </g>
     <g id="line2d_54"/>
     <g id="text_30">
      <!-- 80 -->
      <g style="fill: #262626" transform="translate(669.560313 185.889401) scale(0.12 -0.12)">
       <use xlink:href="#TimesNewRomanPSMT-38"/>
       <use xlink:href="#TimesNewRomanPSMT-30" transform="translate(50 0)"/>
      </g>
     </g>
    </g>
    <g id="ytick_12">
     <g id="line2d_55">
      <path d="M 685.060313 121.259299 
L 1277.365313 121.259299 
" clip-path="url(#p1694aae87d)" style="fill: none; stroke-dasharray: 1.85,0.8; stroke-dashoffset: 0; stroke: #cccccc; stroke-width: 0.5"/>
     </g>
     <g id="line2d_56"/>
     <g id="text_31">
      <!-- 100 -->
      <g style="fill: #262626" transform="translate(663.560313 125.425549) scale(0.12 -0.12)">
       <use xlink:href="#TimesNewRomanPSMT-31"/>
       <use xlink:href="#TimesNewRomanPSMT-30" transform="translate(50 0)"/>
       <use xlink:href="#TimesNewRomanPSMT-30" transform="translate(100 0)"/>
      </g>
     </g>
    </g>
    <g id="ytick_13">
     <g id="line2d_57">
      <path d="M 685.060313 60.795448 
L 1277.365313 60.795448 
" clip-path="url(#p1694aae87d)" style="fill: none; stroke-dasharray: 1.85,0.8; stroke-dashoffset: 0; stroke: #cccccc; stroke-width: 0.5"/>
     </g>
     <g id="line2d_58"/>
     <g id="text_32">
      <!-- 120 -->
      <g style="fill: #262626" transform="translate(663.560313 64.961698) scale(0.12 -0.12)">
       <use xlink:href="#TimesNewRomanPSMT-31"/>
       <use xlink:href="#TimesNewRomanPSMT-32" transform="translate(50 0)"/>
       <use xlink:href="#TimesNewRomanPSMT-30" transform="translate(100 0)"/>
      </g>
     </g>
    </g>
    <g id="text_33">
     <!-- SHD -->
     <g style="fill: #262626" transform="translate(656.565625 236.928906) rotate(-90) scale(0.14 -0.14)">
      <defs>
       <path id="TimesNewRomanPS-BoldMT-44" d="M 84 0 
L 84 116 
L 225 116 
Q 409 116 507 173 
Q 606 231 653 331 
Q 681 397 681 725 
L 681 3513 
Q 681 3838 647 3919 
Q 613 4000 508 4061 
Q 403 4122 225 4122 
L 84 4122 
L 84 4238 
L 1981 4238 
Q 2741 4238 3203 4031 
Q 3769 3778 4061 3265 
Q 4353 2753 4353 2106 
Q 4353 1659 4209 1282 
Q 4066 906 3837 661 
Q 3609 416 3311 267 
Q 3013 119 2581 38 
Q 2391 0 1981 0 
L 84 0 
z
M 1700 3997 
L 1700 691 
Q 1700 428 1725 368 
Q 1750 309 1809 278 
Q 1894 231 2053 231 
Q 2575 231 2850 588 
Q 3225 1069 3225 2081 
Q 3225 2897 2969 3384 
Q 2766 3766 2447 3903 
Q 2222 4000 1700 3997 
z
" transform="scale(0.015625)"/>
      </defs>
      <use xlink:href="#TimesNewRomanPS-BoldMT-53"/>
      <use xlink:href="#TimesNewRomanPS-BoldMT-48" transform="translate(55.615234 0)"/>
      <use xlink:href="#TimesNewRomanPS-BoldMT-44" transform="translate(133.398438 0)"/>
     </g>
    </g>
   </g>
   <g id="line2d_59">
    <path d="M 711.983267 414.508977 
L 788.905994 408.462592 
L 865.828722 396.369822 
L 942.751449 366.137896 
L 1058.13554 257.302964 
L 1250.442358 106.143337 
" clip-path="url(#p1694aae87d)" style="fill: none; stroke-dasharray: 18.5,8; stroke-dashoffset: 0; stroke: #c084fc; stroke-width: 5"/>
    <g clip-path="url(#p1694aae87d)">
     <use xlink:href="#mb6f45f1f6a" x="711.983267" y="414.508977" style="fill: #c084fc; stroke: #c084fc"/>
     <use xlink:href="#mb6f45f1f6a" x="788.905994" y="408.462592" style="fill: #c084fc; stroke: #c084fc"/>
     <use xlink:href="#mb6f45f1f6a" x="865.828722" y="396.369822" style="fill: #c084fc; stroke: #c084fc"/>
     <use xlink:href="#mb6f45f1f6a" x="942.751449" y="366.137896" style="fill: #c084fc; stroke: #c084fc"/>
     <use xlink:href="#mb6f45f1f6a" x="1058.13554" y="257.302964" style="fill: #c084fc; stroke: #c084fc"/>
     <use xlink:href="#mb6f45f1f6a" x="1250.442358" y="106.143337" style="fill: #c084fc; stroke: #c084fc"/>
    </g>
   </g>
   <g id="line2d_60">
    <path d="M 711.983267 408.462592 
L 788.905994 393.346629 
L 865.828722 381.253859 
L 942.751449 354.045126 
L 1058.13554 214.978269 
L 1250.442358 112.189722 
" clip-path="url(#p1694aae87d)" style="fill: none; stroke: #1f77b4; stroke-width: 5; stroke-linecap: round"/>
    <g clip-path="url(#p1694aae87d)">
     <use xlink:href="#m2406756e05" x="711.983267" y="408.462592" style="fill: #1f77b4; stroke: #1f77b4; stroke-linejoin: miter"/>
     <use xlink:href="#m2406756e05" x="788.905994" y="393.346629" style="fill: #1f77b4; stroke: #1f77b4; stroke-linejoin: miter"/>
     <use xlink:href="#m2406756e05" x="865.828722" y="381.253859" style="fill: #1f77b4; stroke: #1f77b4; stroke-linejoin: miter"/>
     <use xlink:href="#m2406756e05" x="942.751449" y="354.045126" style="fill: #1f77b4; stroke: #1f77b4; stroke-linejoin: miter"/>
     <use xlink:href="#m2406756e05" x="1058.13554" y="214.978269" style="fill: #1f77b4; stroke: #1f77b4; stroke-linejoin: miter"/>
     <use xlink:href="#m2406756e05" x="1250.442358" y="112.189722" style="fill: #1f77b4; stroke: #1f77b4; stroke-linejoin: miter"/>
    </g>
   </g>
   <g id="line2d_61">
    <path d="M 711.983267 402.416207 
L 788.905994 390.323437 
L 865.828722 372.184281 
L 942.751449 332.882778 
L 1058.13554 178.699958 
L 1250.442358 94.050566 
" clip-path="url(#p1694aae87d)" style="fill: none; stroke-dasharray: 18.5,8; stroke-dashoffset: 0; stroke: #e6b800; stroke-width: 5"/>
    <g clip-path="url(#p1694aae87d)">
     <use xlink:href="#m62a0575e6a" x="711.983267" y="402.416207" style="fill: #e6b800; stroke: #e6b800; stroke-linejoin: miter"/>
     <use xlink:href="#m62a0575e6a" x="788.905994" y="390.323437" style="fill: #e6b800; stroke: #e6b800; stroke-linejoin: miter"/>
     <use xlink:href="#m62a0575e6a" x="865.828722" y="372.184281" style="fill: #e6b800; stroke: #e6b800; stroke-linejoin: miter"/>
     <use xlink:href="#m62a0575e6a" x="942.751449" y="332.882778" style="fill: #e6b800; stroke: #e6b800; stroke-linejoin: miter"/>
     <use xlink:href="#m62a0575e6a" x="1058.13554" y="178.699958" style="fill: #e6b800; stroke: #e6b800; stroke-linejoin: miter"/>
     <use xlink:href="#m62a0575e6a" x="1250.442358" y="94.050566" style="fill: #e6b800; stroke: #e6b800; stroke-linejoin: miter"/>
    </g>
   </g>
   <g id="line2d_62">
    <path d="M 711.983267 399.393014 
L 788.905994 381.253859 
L 865.828722 354.045126 
L 942.751449 308.697238 
L 1058.13554 160.560803 
L 1250.442358 30.563523 
" clip-path="url(#p1694aae87d)" style="fill: none; stroke: #ffa500; stroke-width: 5; stroke-linecap: round"/>
    <g clip-path="url(#p1694aae87d)">
     <use xlink:href="#m50ae9226ea" x="711.983267" y="399.393014" style="fill: #ffa500; stroke: #ffa500; stroke-linejoin: miter"/>
     <use xlink:href="#m50ae9226ea" x="788.905994" y="381.253859" style="fill: #ffa500; stroke: #ffa500; stroke-linejoin: miter"/>
     <use xlink:href="#m50ae9226ea" x="865.828722" y="354.045126" style="fill: #ffa500; stroke: #ffa500; stroke-linejoin: miter"/>
     <use xlink:href="#m50ae9226ea" x="942.751449" y="308.697238" style="fill: #ffa500; stroke: #ffa500; stroke-linejoin: miter"/>
     <use xlink:href="#m50ae9226ea" x="1058.13554" y="160.560803" style="fill: #ffa500; stroke: #ffa500; stroke-linejoin: miter"/>
     <use xlink:href="#m50ae9226ea" x="1250.442358" y="30.563523" style="fill: #ffa500; stroke: #ffa500; stroke-linejoin: miter"/>
    </g>
   </g>
   <g id="patch_8">
    <path d="M 685.060313 433.70625 
L 685.060313 11.36625 
" style="fill: none; stroke: #cccccc; stroke-linejoin: miter; stroke-linecap: square"/>
   </g>
   <g id="patch_9">
    <path d="M 1277.365313 433.70625 
L 1277.365313 11.36625 
" style="fill: none; stroke: #cccccc; stroke-linejoin: miter; stroke-linecap: square"/>
   </g>
   <g id="patch_10">
    <path d="M 685.060313 433.70625 
L 1277.365313 433.70625 
" style="fill: none; stroke: #cccccc; stroke-linejoin: miter; stroke-linecap: square"/>
   </g>
   <g id="patch_11">
    <path d="M 685.060313 11.36625 
L 1277.365313 11.36625 
" style="fill: none; stroke: #cccccc; stroke-linejoin: miter; stroke-linecap: square"/>
   </g>
   <g id="legend_2">
    <g id="line2d_63">
     <path d="M 697.660313 28.86625 
L 711.660313 28.86625 
L 725.660313 28.86625 
" style="fill: none; stroke-dasharray: 18.5,8; stroke-dashoffset: 0; stroke: #c084fc; stroke-width: 5"/>
     <g>
      <use xlink:href="#mb6f45f1f6a" x="711.660313" y="28.86625" style="fill: #c084fc; stroke: #c084fc"/>
     </g>
    </g>
    <g id="text_34">
     <!-- CFNO-P -->
     <g style="fill: #262626" transform="translate(736.860313 33.76625) scale(0.14 -0.14)">
      <use xlink:href="#TimesNewRomanPS-BoldMT-43"/>
      <use xlink:href="#TimesNewRomanPS-BoldMT-46" transform="translate(72.216797 0)"/>
      <use xlink:href="#TimesNewRomanPS-BoldMT-4e" transform="translate(133.300781 0)"/>
      <use xlink:href="#TimesNewRomanPS-BoldMT-4f" transform="translate(205.517578 0)"/>
      <use xlink:href="#TimesNewRomanPS-BoldMT-2d" transform="translate(283.300781 0)"/>
      <use xlink:href="#TimesNewRomanPS-BoldMT-50" transform="translate(316.601562 0)"/>
     </g>
    </g>
    <g id="line2d_64">
     <path d="M 697.660313 48.660937 
L 711.660313 48.660937 
L 725.660313 48.660937 
" style="fill: none; stroke: #1f77b4; stroke-width: 5; stroke-linecap: round"/>
     <g>
      <use xlink:href="#m2406756e05" x="711.660313" y="48.660937" style="fill: #1f77b4; stroke: #1f77b4; stroke-linejoin: miter"/>
     </g>
    </g>
    <g id="text_35">
     <!-- CUTS+ -->
     <g style="fill: #262626" transform="translate(736.860313 53.560937) scale(0.14 -0.14)">
      <use xlink:href="#TimesNewRomanPS-BoldMT-43"/>
      <use xlink:href="#TimesNewRomanPS-BoldMT-55" transform="translate(72.216797 0)"/>
      <use xlink:href="#TimesNewRomanPS-BoldMT-54" transform="translate(144.433594 0)"/>
      <use xlink:href="#TimesNewRomanPS-BoldMT-53" transform="translate(211.132812 0)"/>
      <use xlink:href="#TimesNewRomanPS-BoldMT-2b" transform="translate(266.748047 0)"/>
     </g>
    </g>
    <g id="line2d_65">
     <path d="M 697.660313 68.455625 
L 711.660313 68.455625 
L 725.660313 68.455625 
" style="fill: none; stroke-dasharray: 18.5,8; stroke-dashoffset: 0; stroke: #e6b800; stroke-width: 5"/>
     <g>
      <use xlink:href="#m62a0575e6a" x="711.660313" y="68.455625" style="fill: #e6b800; stroke: #e6b800; stroke-linejoin: miter"/>
     </g>
    </g>
    <g id="text_36">
     <!-- eSRU -->
     <g style="fill: #262626" transform="translate(736.860313 73.355625) scale(0.14 -0.14)">
      <use xlink:href="#TimesNewRomanPS-BoldMT-65"/>
      <use xlink:href="#TimesNewRomanPS-BoldMT-53" transform="translate(44.384766 0)"/>
      <use xlink:href="#TimesNewRomanPS-BoldMT-52" transform="translate(100 0)"/>
      <use xlink:href="#TimesNewRomanPS-BoldMT-55" transform="translate(172.216797 0)"/>
     </g>
    </g>
    <g id="line2d_66">
     <path d="M 697.660313 88.250312 
L 711.660313 88.250312 
L 725.660313 88.250312 
" style="fill: none; stroke: #ffa500; stroke-width: 5; stroke-linecap: round"/>
     <g>
      <use xlink:href="#m50ae9226ea" x="711.660313" y="88.250312" style="fill: #ffa500; stroke: #ffa500; stroke-linejoin: miter"/>
     </g>
    </g>
    <g id="text_37">
     <!-- CSL-HNTS -->
     <g style="fill: #262626" transform="translate(736.860313 93.150312) scale(0.14 -0.14)">
      <use xlink:href="#TimesNewRomanPS-BoldMT-43"/>
      <use xlink:href="#TimesNewRomanPS-BoldMT-53" transform="translate(72.216797 0)"/>
      <use xlink:href="#TimesNewRomanPS-BoldMT-4c" transform="translate(127.832031 0)"/>
      <use xlink:href="#TimesNewRomanPS-BoldMT-2d" transform="translate(194.53125 0)"/>
      <use xlink:href="#TimesNewRomanPS-BoldMT-48" transform="translate(227.832031 0)"/>
      <use xlink:href="#TimesNewRomanPS-BoldMT-4e" transform="translate(305.615234 0)"/>
      <use xlink:href="#TimesNewRomanPS-BoldMT-54" transform="translate(377.832031 0)"/>
      <use xlink:href="#TimesNewRomanPS-BoldMT-53" transform="translate(444.53125 0)"/>
     </g>
    </g>
   </g>
  </g>
 </g>
 <defs>
  <clipPath id="pff74023f7e">
   <rect x="41.965313" y="11.36625" width="592.305" height="422.34"/>
  </clipPath>
  <clipPath id="p1694aae87d">
   <rect x="685.060313" y="11.36625" width="592.305" height="422.34"/>
  </clipPath>
 </defs>
</svg>
