<?xml version="1.0" encoding="UTF-8" standalone="no"?>
<!DOCTYPE svg PUBLIC "-//W3C//DTD SVG 1.1//EN"
 "http://www.w3.org/Graphics/SVG/1.1/DTD/svg11.dtd">
<!-- Generated by graphviz version 12.1.0 (20240811.2233)
 -->
<!-- Title: ManualSideBySide Pages: 1 -->
<svg width="980pt" height="453pt"
 viewBox="0.00 0.00 980.00 452.79" xmlns="http://www.w3.org/2000/svg" xmlns:xlink="http://www.w3.org/1999/xlink">
<g id="graph0" class="graph" transform="scale(1 1) rotate(0) translate(4 448.79)">
<title>ManualSideBySide</title>
<!-- true_label -->
<g id="node1" class="node">
<title>true_label</title>
<text text-anchor="middle" x="198" y="-11.38" font-family="Times New Roman" font-size="20.00">True Causal Graph</text>
</g>
<!-- true_0 -->
<g id="node2" class="node">
<title>true_0</title>
<defs>
<linearGradient id="node2_l_0" gradientUnits="userSpaceOnUse" x1="360" y1="-255.6" x2="396" y2="-255.6" >
<stop offset="0" style="stop-color:#dbe4f0;stop-opacity:1.;"/>
<stop offset="1" style="stop-color:#aec7e8;stop-opacity:1.;"/>
</linearGradient>
</defs>
<ellipse fill="url(#node2_l_0)" stroke="#99b3d1" stroke-width="2" cx="378" cy="-255.6" rx="18" ry="18"/>
<text text-anchor="middle" x="378" y="-250.93" font-family="Times New Roman" font-size="14.00">0</text>
</g>
<!-- true_3 -->
<g id="node5" class="node">
<title>true_3</title>
<defs>
<linearGradient id="node5_l_1" gradientUnits="userSpaceOnUse" x1="124.38" y1="-426.79" x2="160.38" y2="-426.79" >
<stop offset="0" style="stop-color:#dbe4f0;stop-opacity:1.;"/>
<stop offset="1" style="stop-color:#aec7e8;stop-opacity:1.;"/>
</linearGradient>
</defs>
<ellipse fill="url(#node5_l_1)" stroke="#99b3d1" stroke-width="2" cx="142.38" cy="-426.79" rx="18" ry="18"/>
<text text-anchor="middle" x="142.38" y="-422.12" font-family="Times New Roman" font-size="14.00">3</text>
</g>
<!-- true_0&#45;&gt;true_3 -->
<g id="edge3" class="edge">
<title>true_0&#45;&gt;true_3</title>
<path fill="none" stroke="#444444" stroke-width="2.5" d="M362.9,-266.57C323.68,-295.07 218.18,-371.72 168.69,-407.68"/>
<polygon fill="#444444" stroke="#444444" stroke-width="2.5" points="166.75,-404.76 160.72,-413.47 170.86,-410.42 166.75,-404.76"/>
</g>
<!-- true_6 -->
<g id="node8" class="node">
<title>true_6</title>
<defs>
<linearGradient id="node8_l_2" gradientUnits="userSpaceOnUse" x1="34.38" y1="-149.8" x2="70.38" y2="-149.8" >
<stop offset="0" style="stop-color:#dbe4f0;stop-opacity:1.;"/>
<stop offset="1" style="stop-color:#aec7e8;stop-opacity:1.;"/>
</linearGradient>
</defs>
<ellipse fill="url(#node8_l_2)" stroke="#99b3d1" stroke-width="2" cx="52.38" cy="-149.8" rx="18" ry="18"/>
<text text-anchor="middle" x="52.38" y="-145.12" font-family="Times New Roman" font-size="14.00">6</text>
</g>
<!-- true_0&#45;&gt;true_6 -->
<g id="edge17" class="edge">
<title>true_0&#45;&gt;true_6</title>
<path fill="none" stroke="#444444" stroke-width="2.5" d="M360.03,-249.76C306.88,-232.49 149.99,-181.51 83.12,-159.79"/>
<polygon fill="#444444" stroke="#444444" stroke-width="2.5" points="84.48,-156.55 73.89,-156.79 82.32,-163.21 84.48,-156.55"/>
</g>
<!-- true_1 -->
<g id="node3" class="node">
<title>true_1</title>
<defs>
<linearGradient id="node3_l_3" gradientUnits="userSpaceOnUse" x1="325.62" y1="-361.4" x2="361.62" y2="-361.4" >
<stop offset="0" style="stop-color:#dbe4f0;stop-opacity:1.;"/>
<stop offset="1" style="stop-color:#aec7e8;stop-opacity:1.;"/>
</linearGradient>
</defs>
<ellipse fill="url(#node3_l_3)" stroke="#99b3d1" stroke-width="2" cx="343.62" cy="-361.4" rx="18" ry="18"/>
<text text-anchor="middle" x="343.62" y="-356.73" font-family="Times New Roman" font-size="14.00">1</text>
</g>
<!-- true_1&#45;&gt;true_0 -->
<g id="edge8" class="edge">
<title>true_1&#45;&gt;true_0</title>
<path fill="none" stroke="#444444" stroke-width="2.5" d="M349.45,-343.45C354.49,-327.95 361.89,-305.2 367.89,-286.73"/>
<polygon fill="#444444" stroke="#444444" stroke-width="2.5" points="371.21,-287.83 370.97,-277.23 364.55,-285.66 371.21,-287.83"/>
</g>
<!-- true_1&#45;&gt;true_3 -->
<g id="edge23" class="edge">
<title>true_1&#45;&gt;true_3</title>
<path fill="none" stroke="#444444" stroke-width="2.5" d="M325.76,-367.2C291.45,-378.35 215.95,-402.89 173.29,-416.74"/>
<polygon fill="#444444" stroke="#444444" stroke-width="2.5" points="172.22,-413.41 163.79,-419.83 174.39,-420.07 172.22,-413.41"/>
</g>
<!-- true_1&#45;&gt;true_6 -->
<g id="edge12" class="edge">
<title>true_1&#45;&gt;true_6</title>
<path fill="none" stroke="#444444" stroke-width="2.5" d="M328.37,-350.32C281.29,-316.11 137.81,-211.87 78.48,-168.76"/>
<polygon fill="#444444" stroke="#444444" stroke-width="2.5" points="80.68,-166.04 70.54,-162.99 76.57,-171.7 80.68,-166.04"/>
</g>
<!-- true_2 -->
<g id="node4" class="node">
<title>true_2</title>
<defs>
<linearGradient id="node4_l_4" gradientUnits="userSpaceOnUse" x1="235.62" y1="-426.79" x2="271.62" y2="-426.79" >
<stop offset="0" style="stop-color:#dbe4f0;stop-opacity:1.;"/>
<stop offset="1" style="stop-color:#aec7e8;stop-opacity:1.;"/>
</linearGradient>
</defs>
<ellipse fill="url(#node4_l_4)" stroke="#99b3d1" stroke-width="2" cx="253.62" cy="-426.79" rx="18" ry="18"/>
<text text-anchor="middle" x="253.62" y="-422.12" font-family="Times New Roman" font-size="14.00">2</text>
</g>
<!-- true_2&#45;&gt;true_0 -->
<g id="edge4" class="edge">
<title>true_2&#45;&gt;true_0</title>
<path fill="none" stroke="#444444" stroke-width="2.5" d="M264.66,-411.6C285.92,-382.34 332.77,-317.86 359.09,-281.63"/>
<polygon fill="#444444" stroke="#444444" stroke-width="2.5" points="361.89,-283.72 364.94,-273.57 356.23,-279.61 361.89,-283.72"/>
</g>
<!-- true_2&#45;&gt;true_1 -->
<g id="edge13" class="edge">
<title>true_2&#45;&gt;true_1</title>
<path fill="none" stroke="#444444" stroke-width="2.5" d="M268.89,-415.7C282.08,-406.12 301.43,-392.05 317.14,-380.64"/>
<polygon fill="#444444" stroke="#444444" stroke-width="2.5" points="319.19,-383.48 325.22,-374.77 315.07,-377.82 319.19,-383.48"/>
</g>
<!-- true_2&#45;&gt;true_3 -->
<g id="edge14" class="edge">
<title>true_2&#45;&gt;true_3</title>
<path fill="none" stroke="#ffaaaa" stroke-width="1.5" stroke-dasharray="5,2" d="M234.75,-426.79C217.97,-426.79 193.11,-426.79 173.41,-426.79"/>
<polygon fill="#ffaaaa" stroke="#ffaaaa" stroke-width="1.5" points="173.61,-423.29 163.61,-426.79 173.61,-430.29 173.61,-423.29"/>
</g>
<!-- true_2&#45;&gt;true_6 -->
<g id="edge5" class="edge">
<title>true_2&#45;&gt;true_6</title>
<path fill="none" stroke="#444444" stroke-width="2.5" d="M242.52,-411.5C209.67,-366.29 112.7,-232.83 71.38,-175.95"/>
<polygon fill="#444444" stroke="#444444" stroke-width="2.5" points="74.38,-174.13 65.67,-168.1 68.72,-178.25 74.38,-174.13"/>
</g>
<!-- true_4 -->
<g id="node6" class="node">
<title>true_4</title>
<defs>
<linearGradient id="node6_l_5" gradientUnits="userSpaceOnUse" x1="34.38" y1="-361.4" x2="70.38" y2="-361.4" >
<stop offset="0" style="stop-color:#dbe4f0;stop-opacity:1.;"/>
<stop offset="1" style="stop-color:#aec7e8;stop-opacity:1.;"/>
</linearGradient>
</defs>
<ellipse fill="url(#node6_l_5)" stroke="#99b3d1" stroke-width="2" cx="52.38" cy="-361.4" rx="18" ry="18"/>
<text text-anchor="middle" x="52.38" y="-356.73" font-family="Times New Roman" font-size="14.00">4</text>
</g>
<!-- true_4&#45;&gt;true_0 -->
<g id="edge22" class="edge">
<title>true_4&#45;&gt;true_0</title>
<path fill="none" stroke="#ffaaaa" stroke-width="1.5" stroke-dasharray="5,2" d="M70.35,-355.56C123.83,-338.18 282.36,-286.67 348.5,-265.18"/>
<polygon fill="#ffaaaa" stroke="#ffaaaa" stroke-width="1.5" points="349.5,-268.54 357.93,-262.12 347.33,-261.88 349.5,-268.54"/>
</g>
<!-- true_4&#45;&gt;true_2 -->
<g id="edge25" class="edge">
<title>true_4&#45;&gt;true_2</title>
<path fill="none" stroke="#444444" stroke-width="2.5" d="M70.24,-367.2C104.55,-378.35 180.05,-402.89 222.71,-416.74"/>
<polygon fill="#444444" stroke="#444444" stroke-width="2.5" points="221.61,-420.07 232.21,-419.83 223.78,-413.41 221.61,-420.07"/>
</g>
<!-- true_7 -->
<g id="node9" class="node">
<title>true_7</title>
<defs>
<linearGradient id="node9_l_6" gradientUnits="userSpaceOnUse" x1="124.38" y1="-84.41" x2="160.38" y2="-84.41" >
<stop offset="0" style="stop-color:#dbe4f0;stop-opacity:1.;"/>
<stop offset="1" style="stop-color:#aec7e8;stop-opacity:1.;"/>
</linearGradient>
</defs>
<ellipse fill="url(#node9_l_6)" stroke="#99b3d1" stroke-width="2" cx="142.38" cy="-84.41" rx="18" ry="18"/>
<text text-anchor="middle" x="142.38" y="-79.73" font-family="Times New Roman" font-size="14.00">7</text>
</g>
<!-- true_4&#45;&gt;true_7 -->
<g id="edge24" class="edge">
<title>true_4&#45;&gt;true_7</title>
<path fill="none" stroke="#444444" stroke-width="2.5" d="M58.14,-343.65C73.13,-297.54 113.42,-173.52 132.33,-115.34"/>
<polygon fill="#444444" stroke="#444444" stroke-width="2.5" points="135.61,-116.56 135.37,-105.97 128.95,-114.4 135.61,-116.56"/>
</g>
<!-- true_9 -->
<g id="node11" class="node">
<title>true_9</title>
<defs>
<linearGradient id="node11_l_7" gradientUnits="userSpaceOnUse" x1="325.62" y1="-149.8" x2="361.62" y2="-149.8" >
<stop offset="0" style="stop-color:#dbe4f0;stop-opacity:1.;"/>
<stop offset="1" style="stop-color:#aec7e8;stop-opacity:1.;"/>
</linearGradient>
</defs>
<ellipse fill="url(#node11_l_7)" stroke="#99b3d1" stroke-width="2" cx="343.62" cy="-149.8" rx="18" ry="18"/>
<text text-anchor="middle" x="343.62" y="-145.12" font-family="Times New Roman" font-size="14.00">9</text>
</g>
<!-- true_4&#45;&gt;true_9 -->
<g id="edge1" class="edge">
<title>true_4&#45;&gt;true_9</title>
<path fill="none" stroke="#444444" stroke-width="2.5" d="M67.63,-350.32C114.71,-316.11 258.19,-211.87 317.52,-168.76"/>
<polygon fill="#444444" stroke="#444444" stroke-width="2.5" points="319.43,-171.7 325.46,-162.99 315.32,-166.04 319.43,-171.7"/>
</g>
<!-- true_5 -->
<g id="node7" class="node">
<title>true_5</title>
<defs>
<linearGradient id="node7_l_8" gradientUnits="userSpaceOnUse" x1="0" y1="-255.6" x2="36" y2="-255.6" >
<stop offset="0" style="stop-color:#dbe4f0;stop-opacity:1.;"/>
<stop offset="1" style="stop-color:#aec7e8;stop-opacity:1.;"/>
</linearGradient>
</defs>
<ellipse fill="url(#node7_l_8)" stroke="#99b3d1" stroke-width="2" cx="18" cy="-255.6" rx="18" ry="18"/>
<text text-anchor="middle" x="18" y="-250.93" font-family="Times New Roman" font-size="14.00">5</text>
</g>
<!-- true_5&#45;&gt;true_1 -->
<g id="edge18" class="edge">
<title>true_5&#45;&gt;true_1</title>
<path fill="none" stroke="#ffaaaa" stroke-width="1.5" stroke-dasharray="5,2" d="M35.97,-261.44C89.45,-278.82 247.98,-330.33 314.12,-351.82"/>
<polygon fill="#ffaaaa" stroke="#ffaaaa" stroke-width="1.5" points="312.96,-355.12 323.55,-354.88 315.12,-348.46 312.96,-355.12"/>
</g>
<!-- true_5&#45;&gt;true_4 -->
<g id="edge2" class="edge">
<title>true_5&#45;&gt;true_4</title>
<path fill="none" stroke="#444444" stroke-width="2.5" d="M23.83,-273.55C28.87,-289.05 36.26,-311.8 42.26,-330.27"/>
<polygon fill="#444444" stroke="#444444" stroke-width="2.5" points="38.93,-331.34 45.35,-339.77 45.59,-329.17 38.93,-331.34"/>
</g>
<!-- true_5&#45;&gt;true_6 -->
<g id="edge6" class="edge">
<title>true_5&#45;&gt;true_6</title>
<path fill="none" stroke="#ffaaaa" stroke-width="1.5" stroke-dasharray="5,2" d="M23.83,-237.65C29.02,-221.69 36.7,-198.05 42.79,-179.31"/>
<polygon fill="#ffaaaa" stroke="#ffaaaa" stroke-width="1.5" points="46.05,-180.59 45.82,-169.99 39.4,-178.42 46.05,-180.59"/>
</g>
<!-- true_5&#45;&gt;true_7 -->
<g id="edge7" class="edge">
<title>true_5&#45;&gt;true_7</title>
<path fill="none" stroke="#444444" stroke-width="2.5" d="M29.04,-240.41C50.3,-211.15 97.14,-146.67 123.47,-110.44"/>
<polygon fill="#444444" stroke="#444444" stroke-width="2.5" points="126.27,-112.53 129.32,-102.38 120.61,-108.42 126.27,-112.53"/>
</g>
<!-- true_5&#45;&gt;true_9 -->
<g id="edge10" class="edge">
<title>true_5&#45;&gt;true_9</title>
<path fill="none" stroke="#444444" stroke-width="2.5" d="M35.97,-249.76C89.12,-232.49 246.01,-181.51 312.88,-159.79"/>
<polygon fill="#444444" stroke="#444444" stroke-width="2.5" points="313.68,-163.21 322.11,-156.79 311.52,-156.55 313.68,-163.21"/>
</g>
<!-- true_6&#45;&gt;true_3 -->
<g id="edge9" class="edge">
<title>true_6&#45;&gt;true_3</title>
<path fill="none" stroke="#444444" stroke-width="2.5" d="M58.14,-167.55C73.13,-213.66 113.42,-337.68 132.33,-395.86"/>
<polygon fill="#444444" stroke="#444444" stroke-width="2.5" points="128.95,-396.8 135.37,-405.23 135.61,-394.64 128.95,-396.8"/>
</g>
<!-- true_8 -->
<g id="node10" class="node">
<title>true_8</title>
<defs>
<linearGradient id="node10_l_9" gradientUnits="userSpaceOnUse" x1="235.62" y1="-84.41" x2="271.62" y2="-84.41" >
<stop offset="0" style="stop-color:#dbe4f0;stop-opacity:1.;"/>
<stop offset="1" style="stop-color:#aec7e8;stop-opacity:1.;"/>
</linearGradient>
</defs>
<ellipse fill="url(#node10_l_9)" stroke="#99b3d1" stroke-width="2" cx="253.62" cy="-84.41" rx="18" ry="18"/>
<text text-anchor="middle" x="253.62" y="-79.73" font-family="Times New Roman" font-size="14.00">8</text>
</g>
<!-- true_8&#45;&gt;true_0 -->
<g id="edge15" class="edge">
<title>true_8&#45;&gt;true_0</title>
<path fill="none" stroke="#ffaaaa" stroke-width="1.5" stroke-dasharray="5,2" d="M264.66,-99.6C286.2,-129.24 333.99,-195.03 360.11,-230.98"/>
<polygon fill="#ffaaaa" stroke="#ffaaaa" stroke-width="1.5" points="357.12,-232.82 365.83,-238.85 362.78,-228.7 357.12,-232.82"/>
</g>
<!-- true_8&#45;&gt;true_4 -->
<g id="edge11" class="edge">
<title>true_8&#45;&gt;true_4</title>
<path fill="none" stroke="#444444" stroke-width="2.5" d="M242.52,-99.7C209.67,-144.91 112.7,-278.37 71.38,-335.25"/>
<polygon fill="#444444" stroke="#444444" stroke-width="2.5" points="68.72,-332.95 65.67,-343.1 74.38,-337.07 68.72,-332.95"/>
</g>
<!-- true_8&#45;&gt;true_5 -->
<g id="edge20" class="edge">
<title>true_8&#45;&gt;true_5</title>
<path fill="none" stroke="#444444" stroke-width="2.5" d="M238.53,-95.38C199.3,-123.88 93.8,-200.53 44.31,-236.49"/>
<polygon fill="#444444" stroke="#444444" stroke-width="2.5" points="42.37,-233.57 36.34,-242.28 46.49,-239.23 42.37,-233.57"/>
</g>
<!-- true_8&#45;&gt;true_7 -->
<g id="edge16" class="edge">
<title>true_8&#45;&gt;true_7</title>
<path fill="none" stroke="#ffaaaa" stroke-width="1.5" stroke-dasharray="5,2" d="M234.75,-84.41C217.97,-84.41 193.11,-84.41 173.41,-84.41"/>
<polygon fill="#ffaaaa" stroke="#ffaaaa" stroke-width="1.5" points="173.61,-80.91 163.61,-84.41 173.61,-87.91 173.61,-80.91"/>
</g>
<!-- true_8&#45;&gt;true_9 -->
<g id="edge19" class="edge">
<title>true_8&#45;&gt;true_9</title>
<path fill="none" stroke="#444444" stroke-width="2.5" d="M268.89,-95.5C282.08,-105.08 301.43,-119.15 317.14,-130.56"/>
<polygon fill="#444444" stroke="#444444" stroke-width="2.5" points="315.07,-133.38 325.22,-136.43 319.19,-127.72 315.07,-133.38"/>
</g>
<!-- true_9&#45;&gt;true_7 -->
<g id="edge21" class="edge">
<title>true_9&#45;&gt;true_7</title>
<path fill="none" stroke="#444444" stroke-width="2.5" d="M325.76,-144C291.45,-132.85 215.95,-108.31 173.29,-94.46"/>
<polygon fill="#444444" stroke="#444444" stroke-width="2.5" points="174.39,-91.13 163.79,-91.37 172.22,-97.79 174.39,-91.13"/>
</g>
<!-- pred_label -->
<g id="node12" class="node">
<title>pred_label</title>
<text text-anchor="middle" x="774" y="-11.38" font-family="Times New Roman" font-size="20.00">Predicted Causal Graph</text>
</g>
<!-- pred_0 -->
<g id="node13" class="node">
<title>pred_0</title>
<defs>
<linearGradient id="node13_l_10" gradientUnits="userSpaceOnUse" x1="936" y1="-255.6" x2="972" y2="-255.6" >
<stop offset="0" style="stop-color:#dbe4f0;stop-opacity:1.;"/>
<stop offset="1" style="stop-color:#aec7e8;stop-opacity:1.;"/>
</linearGradient>
</defs>
<ellipse fill="url(#node13_l_10)" stroke="#99b3d1" stroke-width="2" cx="954" cy="-255.6" rx="18" ry="18"/>
<text text-anchor="middle" x="954" y="-250.93" font-family="Times New Roman" font-size="14.00">0</text>
</g>
<!-- pred_3 -->
<g id="node16" class="node">
<title>pred_3</title>
<defs>
<linearGradient id="node16_l_11" gradientUnits="userSpaceOnUse" x1="700.38" y1="-426.79" x2="736.38" y2="-426.79" >
<stop offset="0" style="stop-color:#dbe4f0;stop-opacity:1.;"/>
<stop offset="1" style="stop-color:#aec7e8;stop-opacity:1.;"/>
</linearGradient>
</defs>
<ellipse fill="url(#node16_l_11)" stroke="#99b3d1" stroke-width="2" cx="718.38" cy="-426.79" rx="18" ry="18"/>
<text text-anchor="middle" x="718.38" y="-422.12" font-family="Times New Roman" font-size="14.00">3</text>
</g>
<!-- pred_0&#45;&gt;pred_3 -->
<g id="edge29" class="edge">
<title>pred_0&#45;&gt;pred_3</title>
<path fill="none" stroke="#444444" stroke-width="2.5" d="M938.9,-266.57C899.68,-295.07 794.18,-371.72 744.69,-407.68"/>
<polygon fill="#444444" stroke="#444444" stroke-width="2.5" points="742.75,-404.76 736.72,-413.47 746.86,-410.42 742.75,-404.76"/>
</g>
<!-- pred_6 -->
<g id="node19" class="node">
<title>pred_6</title>
<defs>
<linearGradient id="node19_l_12" gradientUnits="userSpaceOnUse" x1="610.38" y1="-149.8" x2="646.38" y2="-149.8" >
<stop offset="0" style="stop-color:#dbe4f0;stop-opacity:1.;"/>
<stop offset="1" style="stop-color:#aec7e8;stop-opacity:1.;"/>
</linearGradient>
</defs>
<ellipse fill="url(#node19_l_12)" stroke="#99b3d1" stroke-width="2" cx="628.38" cy="-149.8" rx="18" ry="18"/>
<text text-anchor="middle" x="628.38" y="-145.12" font-family="Times New Roman" font-size="14.00">6</text>
</g>
<!-- pred_0&#45;&gt;pred_6 -->
<g id="edge39" class="edge">
<title>pred_0&#45;&gt;pred_6</title>
<path fill="none" stroke="#444444" stroke-width="2.5" d="M936.03,-249.76C882.88,-232.49 725.99,-181.51 659.12,-159.79"/>
<polygon fill="#444444" stroke="#444444" stroke-width="2.5" points="660.48,-156.55 649.89,-156.79 658.32,-163.21 660.48,-156.55"/>
</g>
<!-- pred_1 -->
<g id="node14" class="node">
<title>pred_1</title>
<defs>
<linearGradient id="node14_l_13" gradientUnits="userSpaceOnUse" x1="901.62" y1="-361.4" x2="937.62" y2="-361.4" >
<stop offset="0" style="stop-color:#dbe4f0;stop-opacity:1.;"/>
<stop offset="1" style="stop-color:#aec7e8;stop-opacity:1.;"/>
</linearGradient>
</defs>
<ellipse fill="url(#node14_l_13)" stroke="#99b3d1" stroke-width="2" cx="919.62" cy="-361.4" rx="18" ry="18"/>
<text text-anchor="middle" x="919.62" y="-356.73" font-family="Times New Roman" font-size="14.00">1</text>
</g>
<!-- pred_1&#45;&gt;pred_0 -->
<g id="edge33" class="edge">
<title>pred_1&#45;&gt;pred_0</title>
<path fill="none" stroke="#444444" stroke-width="2.5" d="M925.45,-343.45C930.49,-327.95 937.89,-305.2 943.89,-286.73"/>
<polygon fill="#444444" stroke="#444444" stroke-width="2.5" points="947.21,-287.83 946.97,-277.23 940.55,-285.66 947.21,-287.83"/>
</g>
<!-- pred_1&#45;&gt;pred_3 -->
<g id="edge43" class="edge">
<title>pred_1&#45;&gt;pred_3</title>
<path fill="none" stroke="#444444" stroke-width="2.5" d="M901.76,-367.2C867.45,-378.35 791.95,-402.89 749.29,-416.74"/>
<polygon fill="#444444" stroke="#444444" stroke-width="2.5" points="748.22,-413.41 739.79,-419.83 750.39,-420.07 748.22,-413.41"/>
</g>
<!-- pred_1&#45;&gt;pred_6 -->
<g id="edge37" class="edge">
<title>pred_1&#45;&gt;pred_6</title>
<path fill="none" stroke="#444444" stroke-width="2.5" d="M904.37,-350.32C857.29,-316.11 713.81,-211.87 654.48,-168.76"/>
<polygon fill="#444444" stroke="#444444" stroke-width="2.5" points="656.68,-166.04 646.54,-162.99 652.57,-171.7 656.68,-166.04"/>
</g>
<!-- pred_2 -->
<g id="node15" class="node">
<title>pred_2</title>
<defs>
<linearGradient id="node15_l_14" gradientUnits="userSpaceOnUse" x1="811.62" y1="-426.79" x2="847.62" y2="-426.79" >
<stop offset="0" style="stop-color:#dbe4f0;stop-opacity:1.;"/>
<stop offset="1" style="stop-color:#aec7e8;stop-opacity:1.;"/>
</linearGradient>
</defs>
<ellipse fill="url(#node15_l_14)" stroke="#99b3d1" stroke-width="2" cx="829.62" cy="-426.79" rx="18" ry="18"/>
<text text-anchor="middle" x="829.62" y="-422.12" font-family="Times New Roman" font-size="14.00">2</text>
</g>
<!-- pred_2&#45;&gt;pred_0 -->
<g id="edge30" class="edge">
<title>pred_2&#45;&gt;pred_0</title>
<path fill="none" stroke="#444444" stroke-width="2.5" d="M840.66,-411.6C861.92,-382.34 908.77,-317.86 935.09,-281.63"/>
<polygon fill="#444444" stroke="#444444" stroke-width="2.5" points="937.89,-283.72 940.94,-273.57 932.23,-279.61 937.89,-283.72"/>
</g>
<!-- pred_2&#45;&gt;pred_1 -->
<g id="edge38" class="edge">
<title>pred_2&#45;&gt;pred_1</title>
<path fill="none" stroke="#444444" stroke-width="2.5" d="M844.89,-415.7C858.08,-406.12 877.43,-392.05 893.14,-380.64"/>
<polygon fill="#444444" stroke="#444444" stroke-width="2.5" points="895.19,-383.48 901.22,-374.77 891.07,-377.82 895.19,-383.48"/>
</g>
<!-- pred_2&#45;&gt;pred_6 -->
<g id="edge31" class="edge">
<title>pred_2&#45;&gt;pred_6</title>
<path fill="none" stroke="#444444" stroke-width="2.5" d="M818.52,-411.5C785.67,-366.29 688.7,-232.83 647.38,-175.95"/>
<polygon fill="#444444" stroke="#444444" stroke-width="2.5" points="650.38,-174.13 641.67,-168.1 644.72,-178.25 650.38,-174.13"/>
</g>
<!-- pred_4 -->
<g id="node17" class="node">
<title>pred_4</title>
<defs>
<linearGradient id="node17_l_15" gradientUnits="userSpaceOnUse" x1="610.38" y1="-361.4" x2="646.38" y2="-361.4" >
<stop offset="0" style="stop-color:#dbe4f0;stop-opacity:1.;"/>
<stop offset="1" style="stop-color:#aec7e8;stop-opacity:1.;"/>
</linearGradient>
</defs>
<ellipse fill="url(#node17_l_15)" stroke="#99b3d1" stroke-width="2" cx="628.38" cy="-361.4" rx="18" ry="18"/>
<text text-anchor="middle" x="628.38" y="-356.73" font-family="Times New Roman" font-size="14.00">4</text>
</g>
<!-- pred_4&#45;&gt;pred_2 -->
<g id="edge45" class="edge">
<title>pred_4&#45;&gt;pred_2</title>
<path fill="none" stroke="#444444" stroke-width="2.5" d="M646.24,-367.2C680.55,-378.35 756.05,-402.89 798.71,-416.74"/>
<polygon fill="#444444" stroke="#444444" stroke-width="2.5" points="797.61,-420.07 808.21,-419.83 799.78,-413.41 797.61,-420.07"/>
</g>
<!-- pred_7 -->
<g id="node20" class="node">
<title>pred_7</title>
<defs>
<linearGradient id="node20_l_16" gradientUnits="userSpaceOnUse" x1="700.38" y1="-84.41" x2="736.38" y2="-84.41" >
<stop offset="0" style="stop-color:#dbe4f0;stop-opacity:1.;"/>
<stop offset="1" style="stop-color:#aec7e8;stop-opacity:1.;"/>
</linearGradient>
</defs>
<ellipse fill="url(#node20_l_16)" stroke="#99b3d1" stroke-width="2" cx="718.38" cy="-84.41" rx="18" ry="18"/>
<text text-anchor="middle" x="718.38" y="-79.73" font-family="Times New Roman" font-size="14.00">7</text>
</g>
<!-- pred_4&#45;&gt;pred_7 -->
<g id="edge44" class="edge">
<title>pred_4&#45;&gt;pred_7</title>
<path fill="none" stroke="#444444" stroke-width="2.5" d="M634.14,-343.65C649.13,-297.54 689.42,-173.52 708.33,-115.34"/>
<polygon fill="#444444" stroke="#444444" stroke-width="2.5" points="711.61,-116.56 711.37,-105.97 704.95,-114.4 711.61,-116.56"/>
</g>
<!-- pred_9 -->
<g id="node22" class="node">
<title>pred_9</title>
<defs>
<linearGradient id="node22_l_17" gradientUnits="userSpaceOnUse" x1="901.62" y1="-149.8" x2="937.62" y2="-149.8" >
<stop offset="0" style="stop-color:#dbe4f0;stop-opacity:1.;"/>
<stop offset="1" style="stop-color:#aec7e8;stop-opacity:1.;"/>
</linearGradient>
</defs>
<ellipse fill="url(#node22_l_17)" stroke="#99b3d1" stroke-width="2" cx="919.62" cy="-149.8" rx="18" ry="18"/>
<text text-anchor="middle" x="919.62" y="-145.12" font-family="Times New Roman" font-size="14.00">9</text>
</g>
<!-- pred_4&#45;&gt;pred_9 -->
<g id="edge26" class="edge">
<title>pred_4&#45;&gt;pred_9</title>
<path fill="none" stroke="#444444" stroke-width="2.5" d="M643.63,-350.32C690.71,-316.11 834.19,-211.87 893.52,-168.76"/>
<polygon fill="#444444" stroke="#444444" stroke-width="2.5" points="895.43,-171.7 901.46,-162.99 891.32,-166.04 895.43,-171.7"/>
</g>
<!-- pred_5 -->
<g id="node18" class="node">
<title>pred_5</title>
<defs>
<linearGradient id="node18_l_18" gradientUnits="userSpaceOnUse" x1="576" y1="-255.6" x2="612" y2="-255.6" >
<stop offset="0" style="stop-color:#dbe4f0;stop-opacity:1.;"/>
<stop offset="1" style="stop-color:#aec7e8;stop-opacity:1.;"/>
</linearGradient>
</defs>
<ellipse fill="url(#node18_l_18)" stroke="#99b3d1" stroke-width="2" cx="594" cy="-255.6" rx="18" ry="18"/>
<text text-anchor="middle" x="594" y="-250.93" font-family="Times New Roman" font-size="14.00">5</text>
</g>
<!-- pred_5&#45;&gt;pred_4 -->
<g id="edge27" class="edge">
<title>pred_5&#45;&gt;pred_4</title>
<path fill="none" stroke="#444444" stroke-width="2.5" d="M599.83,-273.55C604.87,-289.05 612.26,-311.8 618.26,-330.27"/>
<polygon fill="#444444" stroke="#444444" stroke-width="2.5" points="614.93,-331.34 621.35,-339.77 621.59,-329.17 614.93,-331.34"/>
</g>
<!-- pred_5&#45;&gt;pred_7 -->
<g id="edge32" class="edge">
<title>pred_5&#45;&gt;pred_7</title>
<path fill="none" stroke="#444444" stroke-width="2.5" d="M605.04,-240.41C626.3,-211.15 673.14,-146.67 699.47,-110.44"/>
<polygon fill="#444444" stroke="#444444" stroke-width="2.5" points="702.27,-112.53 705.32,-102.38 696.61,-108.42 702.27,-112.53"/>
</g>
<!-- pred_5&#45;&gt;pred_9 -->
<g id="edge35" class="edge">
<title>pred_5&#45;&gt;pred_9</title>
<path fill="none" stroke="#444444" stroke-width="2.5" d="M611.97,-249.76C665.12,-232.49 822.01,-181.51 888.88,-159.79"/>
<polygon fill="#444444" stroke="#444444" stroke-width="2.5" points="889.68,-163.21 898.11,-156.79 887.52,-156.55 889.68,-163.21"/>
</g>
<!-- pred_6&#45;&gt;pred_3 -->
<g id="edge34" class="edge">
<title>pred_6&#45;&gt;pred_3</title>
<path fill="none" stroke="#444444" stroke-width="2.5" d="M634.14,-167.55C649.13,-213.66 689.42,-337.68 708.33,-395.86"/>
<polygon fill="#444444" stroke="#444444" stroke-width="2.5" points="704.95,-396.8 711.37,-405.23 711.61,-394.64 704.95,-396.8"/>
</g>
<!-- pred_7&#45;&gt;pred_2 -->
<g id="edge28" class="edge">
<title>pred_7&#45;&gt;pred_2</title>
<path fill="none" stroke="#cccccc" stroke-width="1.5" stroke-dasharray="5,2" d="M724.2,-102.34C742.3,-158.03 797.68,-328.48 820.07,-397.4"/>
<polygon fill="#cccccc" stroke="#cccccc" stroke-width="1.5" points="816.74,-398.45 823.15,-406.88 823.39,-396.29 816.74,-398.45"/>
</g>
<!-- pred_8 -->
<g id="node21" class="node">
<title>pred_8</title>
<defs>
<linearGradient id="node21_l_19" gradientUnits="userSpaceOnUse" x1="811.62" y1="-84.41" x2="847.62" y2="-84.41" >
<stop offset="0" style="stop-color:#dbe4f0;stop-opacity:1.;"/>
<stop offset="1" style="stop-color:#aec7e8;stop-opacity:1.;"/>
</linearGradient>
</defs>
<ellipse fill="url(#node21_l_19)" stroke="#99b3d1" stroke-width="2" cx="829.62" cy="-84.41" rx="18" ry="18"/>
<text text-anchor="middle" x="829.62" y="-79.73" font-family="Times New Roman" font-size="14.00">8</text>
</g>
<!-- pred_8&#45;&gt;pred_4 -->
<g id="edge36" class="edge">
<title>pred_8&#45;&gt;pred_4</title>
<path fill="none" stroke="#444444" stroke-width="2.5" d="M818.52,-99.7C785.67,-144.91 688.7,-278.37 647.38,-335.25"/>
<polygon fill="#444444" stroke="#444444" stroke-width="2.5" points="644.72,-332.95 641.67,-343.1 650.38,-337.07 644.72,-332.95"/>
</g>
<!-- pred_8&#45;&gt;pred_5 -->
<g id="edge41" class="edge">
<title>pred_8&#45;&gt;pred_5</title>
<path fill="none" stroke="#444444" stroke-width="2.5" d="M814.53,-95.38C775.3,-123.88 669.8,-200.53 620.31,-236.49"/>
<polygon fill="#444444" stroke="#444444" stroke-width="2.5" points="618.37,-233.57 612.34,-242.28 622.49,-239.23 618.37,-233.57"/>
</g>
<!-- pred_8&#45;&gt;pred_9 -->
<g id="edge40" class="edge">
<title>pred_8&#45;&gt;pred_9</title>
<path fill="none" stroke="#444444" stroke-width="2.5" d="M844.89,-95.5C858.08,-105.08 877.43,-119.15 893.14,-130.56"/>
<polygon fill="#444444" stroke="#444444" stroke-width="2.5" points="891.07,-133.38 901.22,-136.43 895.19,-127.72 891.07,-133.38"/>
</g>
<!-- pred_9&#45;&gt;pred_7 -->
<g id="edge42" class="edge">
<title>pred_9&#45;&gt;pred_7</title>
<path fill="none" stroke="#444444" stroke-width="2.5" d="M901.76,-144C867.45,-132.85 791.95,-108.31 749.29,-94.46"/>
<polygon fill="#444444" stroke="#444444" stroke-width="2.5" points="750.39,-91.13 739.79,-91.37 748.22,-97.79 750.39,-91.13"/>
</g>
<!-- L1s -->
<g id="node23" class="node">
<title>L1s</title>
<ellipse fill="black" stroke="black" cx="457.2" cy="-327.6" rx="0.36" ry="0.36"/>
</g>
<!-- L1e -->
<g id="node24" class="node">
<title>L1e</title>
<ellipse fill="black" stroke="black" cx="514.8" cy="-327.6" rx="0.36" ry="0.36"/>
</g>
<!-- L1s&#45;&gt;L1e -->
<g id="edge46" class="edge">
<title>L1s&#45;&gt;L1e</title>
<path fill="none" stroke="#444444" stroke-width="2.5" d="M457.85,-327.6C463.78,-327.6 508.64,-327.6 514.23,-327.6"/>
</g>
<!-- L1_label -->
<g id="node25" class="node">
<title>L1_label</title>
<text text-anchor="middle" x="550.8" y="-322.93" font-family="Times New Roman" font-size="14.00">Correct</text>
</g>
<!-- L2s -->
<g id="node26" class="node">
<title>L2s</title>
<ellipse fill="black" stroke="black" cx="457.2" cy="-284.4" rx="0.36" ry="0.36"/>
</g>
<!-- L2e -->
<g id="node27" class="node">
<title>L2e</title>
<ellipse fill="black" stroke="black" cx="514.8" cy="-284.4" rx="0.36" ry="0.36"/>
</g>
<!-- L2s&#45;&gt;L2e -->
<g id="edge47" class="edge">
<title>L2s&#45;&gt;L2e</title>
<path fill="none" stroke="#cccccc" stroke-width="1.5" stroke-dasharray="5,2" d="M457.85,-284.4C463.78,-284.4 508.64,-284.4 514.23,-284.4"/>
</g>
<!-- L2_label -->
<g id="node28" class="node">
<title>L2_label</title>
<text text-anchor="middle" x="550.8" y="-279.73" font-family="Times New Roman" font-size="14.00">Incorrect</text>
</g>
<!-- L3s -->
<g id="node29" class="node">
<title>L3s</title>
<ellipse fill="black" stroke="black" cx="457.2" cy="-241.2" rx="0.36" ry="0.36"/>
</g>
<!-- L3e -->
<g id="node30" class="node">
<title>L3e</title>
<ellipse fill="black" stroke="black" cx="514.8" cy="-241.2" rx="0.36" ry="0.36"/>
</g>
<!-- L3s&#45;&gt;L3e -->
<g id="edge48" class="edge">
<title>L3s&#45;&gt;L3e</title>
<path fill="none" stroke="#ffaaaa" stroke-width="1.5" stroke-dasharray="5,2" d="M457.85,-241.2C463.78,-241.2 508.64,-241.2 514.23,-241.2"/>
</g>
<!-- L3_label -->
<g id="node31" class="node">
<title>L3_label</title>
<text text-anchor="middle" x="550.8" y="-236.53" font-family="Times New Roman" font-size="14.00">Missed</text>
</g>
</g>
</svg>
